<svg id="_9000d8f9370ac6427492baf3ac4c9c4b" data-name="9000d8f9370ac6427492baf3ac4c9c4b" xmlns="http://www.w3.org/2000/svg" xmlns:xlink="http://www.w3.org/1999/xlink" width="553.433" height="407.384" viewBox="0 0 553.433 407.384">
  <defs>
    <clipPath id="clip-path">
      <path id="Path_184" data-name="Path 184" d="M0,0C.486,6.291,2.586,12.554,4.576,18.5,9.886,34.315,17.533,48.52,31.087,58.721c6.584,4.954,15.516,9.593,24.053,8.423,4.044-.553,8.556-2.888,8.354-7.562C63.146,51.225,53.123,44.7,47,40.633,32.032,30.7,4.246,19.945,0,0Z" clip-rule="evenodd"/>
    </clipPath>
    <clipPath id="clip-path-2">
      <path id="Path_187" data-name="Path 187" d="M13552.99,7408.779c.486-6.291,2.586-12.554,4.576-18.5,5.31-15.818,12.957-30.023,26.512-40.224,6.584-4.954,15.516-9.593,24.053-8.423,4.044.553,8.556,2.888,8.354,7.562-.348,8.356-10.371,14.886-16.5,18.948C13585.021,7378.078,13557.236,7388.834,13552.99,7408.779Z" transform="translate(-13552.99 -7341.453)" clip-rule="evenodd"/>
    </clipPath>
    <clipPath id="clip-path-3">
      <path id="Path_190" data-name="Path 190" d="M9.329,4.571c-.316,11.847-1.058,24.594.3,36.821,1.3,11.575,4.489,22.689,12.116,31.921C30.01,83.324,41.785,89.6,52.332,96.906c11.739,8.134,22.019,17.446,25.972,32.8A40.78,40.78,0,0,1,79.5,143.9a42.6,42.6,0,0,1-4.428,14.538,4.449,4.449,0,1,1-7.98-3.938,33.911,33.911,0,0,0,3.552-11.476,31.915,31.915,0,0,0-.949-11.1c-3.382-13.078-12.42-20.775-22.432-27.7-11.2-7.762-23.6-14.6-32.383-25.242C-2.191,58.292-.245,29.449.425,4.334a4.454,4.454,0,0,1,8.9.237Z" fill="#2e0034" clip-rule="evenodd"/>
    </clipPath>
    <clipPath id="clip-path-4">
      <circle id="Ellipse_3" data-name="Ellipse 3" cx="41.777" cy="41.777" r="41.777"/>
    </clipPath>
    <clipPath id="clip-path-5">
      <path id="Path_196" data-name="Path 196" d="M267.473.082C222.351,4.776,164.2,70.708,164.2,70.708L59.137,37.635S51.2,19.009,48.444,18.826c-9.039-.6-5.374,14.846-5.374,14.846S9.393,35.645,2.683,40.562C-10.584,50.29,29.66,55.245,29.66,55.245s81.034,73,121.3,78.279,98.5-34.09,120.264-46.575c40.019-22.959,22.467-89.6-3.749-86.867Z" clip-rule="evenodd"/>
    </clipPath>
    <clipPath id="clip-path-6">
      <path id="Path_199" data-name="Path 199" d="M12824.7,6668.261c-20.936-20.939-110.068-59.336-117.643-1.177-9.9,76.033-46.859,149.6-46.859,149.6l161.2-1.109S12845.621,6689.2,12824.7,6668.261Z" transform="translate(-12660.193 -6636.333)" clip-rule="evenodd"/>
    </clipPath>
    <clipPath id="clip-path-7">
      <path id="Path_203" data-name="Path 203" d="M24.981,58.182l-23.438-.34c3.25-8.811,1.8-13.3-1.543-21.566C29.808-21.3,37.488-1.779,27.389,35.746,23.438,41.367,22.128,48.548,24.981,58.182Z" clip-rule="evenodd"/>
    </clipPath>
    <clipPath id="clip-path-8">
      <path id="Path_211" data-name="Path 211" d="M12098.295,6892.776c-45.121,4.695-103.275,70.626-103.275,70.626l-105.061-33.073s-7.939-18.626-10.693-18.809c-9.039-.6-5.375,14.847-5.375,14.847s-27.842-2.64-32.7-.951c-15.541,5.411,19.291,22.523,19.291,22.523s81.034,73,121.3,78.279,98.5-34.09,120.264-46.575C12142.063,6956.684,12124.511,6890.048,12098.295,6892.776Z" transform="translate(-11837.198 -6892.694)" clip-rule="evenodd"/>
    </clipPath>
  </defs>
  <path id="Path_180" data-name="Path 180" d="M341.827,93.6l3.894,19.961,28.855-57.318L309.013,71.322,323.85,77.6l-37.5,25.612L159,2.516a11.693,11.693,0,0,0-16.485,2.011L96.5,63.97,65.171,56.044a11.7,11.7,0,0,0-11.76,3.745L2.789,119.158a11.682,11.682,0,0,0,17.783,15.154l45.91-53.845,31.7,8.022a11.706,11.706,0,0,0,12.11-4.173l43.483-56.162L278.6,126.859a11.685,11.685,0,0,0,13.837.483Z" transform="translate(88.553 145.323) rotate(-22.828)" fill="#f9e8ff" fill-rule="evenodd"/>
  <path id="Path_181" data-name="Path 181" d="M9097.667,6986.058c-3.306-25.23-21.673-29.71-38.651-38.481-15.184-7.856-31.043-18.973-42.782-33.111-14.358-17.286-20.952-42.338-8.953-63.85a73.378,73.378,0,0,1,17.048-20.562,52.538,52.538,0,0,1,17.3-9.55c50.19-16.471,61.738,70.382,109.2,63.393,29.021-4.274,47.822-36.3,64.472-61.871,15.9-24.432,34.773-46.681,58.979-58.433,27.893-13.536,53.9,6.6,80.07,17.16a106.371,106.371,0,0,0,47.38,7.93c38.46-2.656,38.113-65.318,73.329-86,71.934-42.259,109.179,55.87,50.243,126.56-16.893,20.263-40.552,35.482-53.471,60.349-15.573,30-11.851,61.01-8.788,94.422Z" transform="translate(-9001.045 -6580.014)" fill="#f9e8ff" fill-rule="evenodd"/>
  <g id="Group_66" data-name="Group 66" transform="translate(103.899 403.933) rotate(180)">
    <path id="Path_182" data-name="Path 182" d="M0,0C.486,6.291,2.586,12.554,4.576,18.5,9.886,34.315,17.533,48.52,31.087,58.721c6.584,4.954,15.516,9.593,24.053,8.423,4.044-.553,8.556-2.888,8.354-7.562C63.146,51.225,53.123,44.7,47,40.633,32.032,30.7,4.246,19.945,0,0Z" transform="translate(0 0)" fill="#370c46" fill-rule="evenodd"/>
    <g id="Group_65" data-name="Group 65" transform="translate(0 0)" clip-path="url(#clip-path)">
      <path id="Path_183" data-name="Path 183" d="M60.295,65.65c1.146-2.856.661-6.238.066-9.158a24.97,24.97,0,0,0-2.622-7.646C52.825,40.406,42.49,36.859,33.346,35.47c-4.131-.628-10.753-1.047-13.992,2.347-2.226,2.336-.617,4.583-.485,7.206.033.694-.518.859-1.1.683-3.162-.926-5.872-5.432-7.569-7.933A63.28,63.28,0,0,1,.513,12.113c-.474-3.162-1.179-7.58.86-10.379C3.929-1.78,9.746.908,12.71,2.3c.859.408,1.719.838,2.567,1.278.981.507,1.961,1.036,2.92,1.565,1.51.826,2.986,1.708,4.451,2.589,8.957,5.355,51.761,27.6,57.4,38.121,5.883,10.984-9.586,16.075-19.755,19.8Z" transform="translate(-0.474 5.792)" fill-rule="evenodd"/>
    </g>
  </g>
  <g id="Group_68" data-name="Group 68" transform="translate(108.501 336.606)">
    <path id="Path_185" data-name="Path 185" d="M13552.99,7408.779c.486-6.291,2.586-12.554,4.576-18.5,5.31-15.818,12.957-30.023,26.512-40.224,6.584-4.954,15.516-9.593,24.053-8.423,4.044.553,8.556,2.888,8.354,7.562-.348,8.356-10.371,14.886-16.5,18.948C13585.021,7378.078,13557.236,7388.834,13552.99,7408.779Z" transform="translate(-13552.99 -7341.453)" fill="#370c46" fill-rule="evenodd"/>
    <g id="Group_67" data-name="Group 67" clip-path="url(#clip-path-2)">
      <path id="Path_186" data-name="Path 186" d="M16111.262,8910.985c1.146,2.856.66,6.238.065,9.158a24.947,24.947,0,0,1-2.622,7.646c-4.914,8.44-15.248,11.987-24.393,13.376-4.132.628-10.754,1.047-13.992-2.347-2.227-2.336-.617-4.584-.485-7.206.033-.694-.518-.858-1.1-.683-3.163.926-5.872,5.432-7.569,7.933a63.276,63.276,0,0,0-9.684,25.66c-.475,3.162-1.18,7.58.859,10.378,2.555,3.516,8.373.827,11.336-.561.859-.408,1.719-.838,2.567-1.279.981-.506,1.961-1.035,2.919-1.564,1.51-.826,2.986-1.707,4.451-2.589,8.958-5.354,51.762-27.6,57.4-38.12C16136.9,8919.8,16121.43,8914.712,16111.262,8910.985Z" transform="translate(-16051.44 -8915.102)" fill-rule="evenodd"/>
    </g>
  </g>
  <g id="Group_70" data-name="Group 70" transform="translate(111.226 405.392) rotate(180)">
    <path id="Path_188" data-name="Path 188" d="M9.329,4.571c-.316,11.847-1.058,24.594.3,36.821,1.3,11.575,4.489,22.689,12.116,31.921C30.01,83.324,41.785,89.6,52.332,96.906c11.739,8.134,22.019,17.446,25.972,32.8A40.78,40.78,0,0,1,79.5,143.9a42.6,42.6,0,0,1-4.428,14.538,4.449,4.449,0,1,1-7.98-3.938,33.911,33.911,0,0,0,3.552-11.476,31.915,31.915,0,0,0-.949-11.1c-3.382-13.078-12.42-20.775-22.432-27.7-11.2-7.762-23.6-14.6-32.383-25.242C-2.191,58.292-.245,29.449.425,4.334a4.454,4.454,0,0,1,8.9.237Z" transform="translate(0 0)" fill-rule="evenodd"/>
    <g id="Group_69" data-name="Group 69" transform="translate(0 0)" clip-path="url(#clip-path-3)">
      <path id="Path_189" data-name="Path 189" d="M0,55.422C6.755,49.89,9.346,15.878,14.225,8.767,15.383,7.064,17.164.4,19.491.022c1.8-.291,3.341,2.323,4.1,3.537,2.721,4.293,4.221,9.5,5.522,14.363,3.385,12.529,5.251,27.622,1.444,40.246a24.64,24.64,0,0,1-2.694,6.165c-5.258,8.213-14.846,4.08-20.61-1.065A65.378,65.378,0,0,1,0,55.421Z" transform="translate(55.437 111.337)" fill="#2e0034" fill-rule="evenodd"/>
    </g>
  </g>
  <g id="Group_72" data-name="Group 72" transform="translate(90.509 272.719) rotate(180)">
    <circle id="Ellipse_2" data-name="Ellipse 2" cx="41.777" cy="41.777" r="41.777" transform="translate(0 0)"/>
    <g id="Group_71" data-name="Group 71" transform="translate(0 0)" clip-path="url(#clip-path-4)">
      <path id="Path_191" data-name="Path 191" d="M75.519,84.787c4.165-20.559,2.831-45.4-15.943-58.5A47.12,47.12,0,0,0,47.941,20.41c-10.379-3.548-22.829-3.493-32.789,1.333a31.891,31.891,0,0,0-8.087,5.443c-1.487,1.4-2.964,3.735-4.815,4.65S-.1,30.414.014,29.092c.4-4.98,3.768-9.916,6.8-13.662C18.469,1.008,37.717-3.223,55.1,2.4c29.979,9.685,45.668,55.022,20.416,82.391Z" transform="translate(0.315 -10.278)" fill="#1e1e1e" fill-rule="evenodd"/>
    </g>
  </g>
  <path id="Path_192" data-name="Path 192" d="M19.689,36.78A5.152,5.152,0,0,0,18.4,33.1a11.583,11.583,0,0,0-4.358-2.525,51.457,51.457,0,0,1-5.3-2.3,16.849,16.849,0,0,1-3.826-2.623,10.554,10.554,0,0,1-2.479-3.484A11.647,11.647,0,0,1,1.553,17.4,10.576,10.576,0,0,1,4.6,9.59a12.85,12.85,0,0,1,8.095-3.554V0H17.2V6.12a11.773,11.773,0,0,1,7.816,4.16,13.717,13.717,0,0,1,2.821,8.956H19.689a7.809,7.809,0,0,0-1.395-5.063,4.617,4.617,0,0,0-3.737-1.678,4.76,4.76,0,0,0-3.584,1.312,4.989,4.989,0,0,0-1.268,3.625,4.753,4.753,0,0,0,1.242,3.441,13.649,13.649,0,0,0,4.61,2.652A51.21,51.21,0,0,1,21.1,26.076a16.08,16.08,0,0,1,3.668,2.708,10.512,10.512,0,0,1,2.284,3.441,11.837,11.837,0,0,1,.789,4.5,10.545,10.545,0,0,1-2.989,7.785,13.125,13.125,0,0,1-8.237,3.526v5.613H12.131V48.063a13.569,13.569,0,0,1-8.958-4.1A13.227,13.227,0,0,1,0,34.693H8.152a7.5,7.5,0,0,0,1.595,5.147,5.813,5.813,0,0,0,4.584,1.791,5.609,5.609,0,0,0,3.921-1.312,4.557,4.557,0,0,0,1.437-3.54Z" transform="translate(21.671 214.672) rotate(-30)" fill="#fff"/>
  <g id="Group_79" data-name="Group 79" transform="translate(126.218 90.604)">
    <g id="Group_74" data-name="Group 74" transform="matrix(0.837, 0.547, -0.547, 0.837, 89.097, 0)">
      <path id="Path_193" data-name="Path 193" d="M267.473.082C222.351,4.776,164.2,70.708,164.2,70.708L59.137,37.635S51.2,19.009,48.444,18.826c-9.039-.6-5.374,14.846-5.374,14.846S9.393,35.645,2.683,40.562C-10.584,50.29,29.66,55.245,29.66,55.245s81.034,73,121.3,78.279,98.5-34.09,120.264-46.575c40.019-22.959,22.467-89.6-3.749-86.867Z" transform="translate(0 0)" fill="#fad8ba" fill-rule="evenodd"/>
      <g id="Group_73" data-name="Group 73" transform="translate(0 0)" clip-path="url(#clip-path-5)">
        <path id="Path_194" data-name="Path 194" d="M0,0C7.019,6.938,28.02,106.287,92.977,133.6c14.358,6.036,40.526-3.813,56.087-3.851,7.564-.019,16.34-2.547,23.763-1.147,6.033,1.136,9.6,6.978,10.524,12.668,4.6,28.449-31.478,37.551-52.6,37.922a132.941,132.941,0,0,1-14.809-.49,161.665,161.665,0,0,1-16.058-2.278C45.112,165.628,13.606,53.788,0,0Z" transform="matrix(0.837, -0.547, 0.547, 0.837, 31.598, 56.689)" fill="#d7b699" fill-rule="evenodd"/>
        <path id="Path_195" data-name="Path 195" d="M0,37.923C.028,52.8,8.626,67.158,16.265,79.36c5.61,8.969,11.276,17.582,19.761,24.047,7.433,5.659,16.913,11.307,26.3,12.819,19.281,3.091,33.3-15.176,40.479-30.6C115.735,57.845,114.1,13.77,79.972,2.52A51.121,51.121,0,0,0,63.425,0C53,.141,9.349,33.619,0,37.923Z" transform="translate(193.348 -7.006)" fill="#45005d" fill-rule="evenodd"/>
      </g>
    </g>
    <path id="Path_197" data-name="Path 197" d="M12824.7,6668.261c-20.936-20.939-110.068-59.336-117.643-1.177-9.9,76.033-46.859,149.6-46.859,149.6l161.2-1.109S12845.621,6689.2,12824.7,6668.261Z" transform="translate(-12455.791 -6501.433)" fill="#6800ac" fill-rule="evenodd"/>
    <g id="Group_75" data-name="Group 75" transform="translate(204.402 134.899)" clip-path="url(#clip-path-6)">
      <path id="Path_198" data-name="Path 198" d="M12675.061,6880.385c-7.761,36.96-19.732,79.422-49.3,104.874-11.369,9.792-29.437,12.037-44.4,25.812-25.371,23.35-39.324,12.985-60.27,5.318-10.194-3.721-23.274-8.758-34.1-7.4-14.81,1.86-10.534,13.652-2.772,23.575,6.56,8.363,16.688,13.2,26.433,16.8,19.817,7.329,41.5,10.4,62.523,11.3,29.307,1.25,61.753-1.174,88.024-15.41C12714.92,7016.135,12696.664,6933.282,12675.061,6880.385Z" transform="translate(-12499.763 -6850.216)" fill="#45005d" fill-rule="evenodd"/>
    </g>
    <g id="Group_77" data-name="Group 77" transform="translate(326.897 183.059) rotate(180)">
      <path id="Path_200" data-name="Path 200" d="M24.981,58.182l-23.438-.34c3.25-8.811,1.8-13.3-1.543-21.566C29.808-21.3,37.488-1.779,27.389,35.746,23.438,41.367,22.128,48.548,24.981,58.182Z" fill="#fad8ba" fill-rule="evenodd"/>
      <g id="Group_76" data-name="Group 76" clip-path="url(#clip-path-7)">
        <path id="Path_201" data-name="Path 201" d="M28.142,7.645C23.862,1.435,16.514-1.089,9.245.431,5.057,1.3,1.068,3.941.172,8.4c-.909,4.543,1.9,8.149,5.7,10.316,5.939,3.376,16.9-6.735,22.268-11.074Z" transform="translate(-0.63 36.701)" fill="#d7b699" fill-rule="evenodd"/>
        <path id="Path_202" data-name="Path 202" d="M11.958,84.936c1.429-10.943,3-22.044,2.268-33.093-.382-5.741,7.182-32.421-4.781-35.437C-.975,13.786-2.808,10.441,4.118,4.265c6.8-6.058,15.972-5.821,21.529,1.725,3.275,4.438,4.967,10.061,5.961,15.42C33.793,33.21,14.443,73.3,11.958,84.936Z" transform="translate(14.568 -12.155)" fill="#d7b699" fill-rule="evenodd"/>
      </g>
    </g>
    <path id="Path_204" data-name="Path 204" d="M16.411,44.076c9.063,0,16.42-9.726,16.42-21.7S31.259,0,22.205,0,0,10.393,0,22.371s7.357,21.7,16.411,21.7Z" transform="translate(329.351 140.825) rotate(180)" fill="#fad8ba" fill-rule="evenodd"/>
    <path id="Path_205" data-name="Path 205" d="M13345.84,6268.169c-2.434,3.2-7.2,4.211-10.947,4.086a25.212,25.212,0,0,1-9.885-2.4c-8.4-4.036-7.357-14.047-3.664-21.132,3.279-6.286,8.916-10.047,15.654-6.19a12.131,12.131,0,0,1,3.241,2.944c2.716-1.12,6.032-.962,8.88-.654a29.335,29.335,0,0,1,7.639,1.662c10.722,4.288,13.127,16.246,10.252,26.261a23.979,23.979,0,0,1-6.99,11.549c-1.542,1.3-3.637,2.583-5.761,2.17-5.479-1.062-.075-6.3.517-8.937.291-1.288.264-3.437-1.269-3.933a2.637,2.637,0,0,0-2.48.676c-1.88,1.55-2.81,4-4.849,5.422-1.822,1.27-2.377-.257-1.879-1.861.169-.546.366-1.082.572-1.617C13345.275,6275.145,13345.708,6269.309,13345.84,6268.169Z" transform="translate(-13032.797 -6154.945)" fill="#03222f" fill-rule="evenodd"/>
    <path id="Path_206" data-name="Path 206" d="M11551.682,6098.794l-12.479-15.553s34.185-9.041,40.489-12.967q13.5-8.4,34.851-10.583,21.369-2.18,30.905-6.326a36.367,36.367,0,0,0,15.362-12.193q17.534-24.286-4.886-40.468-10.641-7.676-21.753-5.753t-19.7,13.212l-41.674-30.082-12.5-16.119s45.685-12.454,61.264-14.04q28.655-2.917,58.84,18.866,30.472,21.99,36.646,48.856,6.189,26.867-13.211,53.739a62.452,62.452,0,0,1-22.109,19.124q-13.292,6.909-36.486,10.276l-19.629,2.663q-18.492,2.607-30.247,15.55l-6.9,8.352Zm-36.016,41.111q6.948-9.629,18-11.161t21.255,5.833q10.2,7.366,12.225,18.338t-4.924,20.6q-6.85,9.486-17.7,11.05t-21.339-6.014q-10.5-7.569-12.432-18.36t4.914-20.283Z" transform="translate(-11448.066 -5897.819)"/>
    <path id="Path_207" data-name="Path 207" d="M53.508,182.378c0-16.541,2.076-29.723,6.108-39.52s11.36-19.472,21.989-28.977c10.751-9.516,17.836-17.249,21.378-23.223a36.424,36.424,0,0,0,5.375-18.875c0-19.973-9.283-29.954-27.732-29.954-8.672,0-15.758,2.688-21.01,8.062S51.675,62.682,51.43,72.137H0Q.365,38.294,21.868,19.143,43.491.012,80.628,0q37.567,0,58.4,18.165c13.8,12.118,20.645,29.221,20.645,51.309a61.992,61.992,0,0,1-6.721,28.452c-4.4,8.917-12.339,18.813-23.576,29.685l-14.3,13.646q-13.561,12.938-15.391,30.309l-.734,10.811H53.506Zm-5.132,54.411q0-11.875,8.063-19.583c5.375-5.143,12.337-7.707,20.645-7.707,8.429,0,15.27,2.565,20.645,7.707s8.063,11.666,8.063,19.583c0,7.793-2.563,14.232-7.818,19.313s-12.218,7.624-20.89,7.624c-8.551,0-15.515-2.541-20.767-7.624A25.775,25.775,0,0,1,48.376,236.789Z" transform="matrix(0.811, 0.585, -0.585, 0.811, 154.351, 5.479)" fill="#ce47e8"/>
    <path id="Path_208" data-name="Path 208" d="M12098.295,6892.776c-45.121,4.695-103.275,70.626-103.275,70.626l-105.061-33.073s-7.939-18.626-10.693-18.809c-9.039-.6-5.375,14.847-5.375,14.847s-27.842-2.64-32.7-.951c-15.541,5.411,19.291,22.523,19.291,22.523s81.034,73,121.3,78.279,98.5-34.09,120.264-46.575C12142.063,6956.684,12124.511,6890.048,12098.295,6892.776Z" transform="translate(-11734.531 -6726.104)" fill="#fad8ba" fill-rule="evenodd"/>
    <g id="Group_78" data-name="Group 78" transform="translate(102.667 166.59)" clip-path="url(#clip-path-8)">
      <path id="Path_209" data-name="Path 209" d="M12219.535,7188.564c-1.992,9.727-.555,21.658,3.308,30.671,2.734,6.356,6.032,12.459,8.71,18.829,1.1,2.61,2.866,6.031,1.992,8.943-1.015,3.383-4.934,6.07-7.742,7.8a44.156,44.156,0,0,1-8.053,3.834,93.77,93.77,0,0,1-14.583,3.749,188.463,188.463,0,0,1-23.538,2.753,176.132,176.132,0,0,1-36.016-1.1c-26.789-3.909-51.774-14.677-74.176-29.587-8.568-5.706-17.007-11.681-25.182-17.945-1.955-1.5-9.321-8.69-8.072-1.9,1.082,5.9,4.492,11.669,7.537,16.71a143.577,143.577,0,0,0,22.711,28.843,151.123,151.123,0,0,0,27.531,21.02c46.145,27.719,102.485,23.7,149.486.131,21.254-10.656,44.65-25.84,54.678-48.391C12301.265,7225.846,12218.915,7196.226,12219.535,7188.564Z" transform="translate(-12011.462 -7151.99)" fill="#d7b699" fill-rule="evenodd"/>
      <path id="Path_210" data-name="Path 210" d="M13454.529,6798.873c.027,14.877,8.626,29.234,16.266,41.437,5.609,8.969,11.275,17.582,19.76,24.047,7.434,5.66,16.914,11.307,26.3,12.82,19.281,3.091,33.3-15.177,40.479-30.6,12.929-27.778,11.294-71.854-22.833-83.1a51.12,51.12,0,0,0-16.547-2.516C13507.534,6761.09,13463.879,6794.568,13454.529,6798.873Z" transform="translate(-13254.603 -6777.235)" fill="#45005d" fill-rule="evenodd"/>
    </g>
  </g>
  <path id="Path_212" data-name="Path 212" d="M10075.676,2859.5h419.633v2.756h-419.633Z" transform="translate(-9989.358 -2455.39)" fill="#03222f" fill-rule="evenodd"/>
  <path id="Path_213" data-name="Path 213" d="M1079.55,3038.933h44.961v2.928H1079.55Z" transform="translate(-1052.202 -2634.478)" fill="#03222f" fill-rule="evenodd"/>
  <path id="Path_214" data-name="Path 214" d="M171.441,129.86c0,15.7-21.621,31.752-37.322,31.752H28.448A28.462,28.462,0,0,1,0,133.164v-56.9A28.462,28.462,0,0,1,28.448,47.818V12.244c0-2.1,13.259-13.658,14.67-12.1C55.96,14.383,72.45,47.818,72.45,47.818h61.669a28.462,28.462,0,0,1,28.448,28.449l8.874,53.593Z" transform="translate(193.787 207.353) rotate(180)" fill-rule="evenodd"/>
  <path id="Path_215" data-name="Path 215" d="M162.567,125.992a28.462,28.462,0,0,1-28.448,28.449H28.448A28.462,28.462,0,0,1,0,125.992V69.1A28.462,28.462,0,0,1,28.448,40.647V5.072a5.076,5.076,0,0,1,8.844-3.4C50.135,15.913,72.45,40.647,72.45,40.647h61.669A28.462,28.462,0,0,1,162.567,69.1v56.9Z" transform="translate(183.778 207.823) rotate(180)" fill="#ce47e8" fill-rule="evenodd"/>
  <path id="Path_216" data-name="Path 216" d="M37.472,0A37.469,37.469,0,0,0,8.887,61.7l21.439-18.17A9.366,9.366,0,0,1,37.472,28.1V0ZM13.924,66.619A37.472,37.472,0,0,0,74.9,39.139l-18.718-.833A18.736,18.736,0,0,1,25.7,52.046L13.924,66.619ZM74.336,30.768A37.467,37.467,0,0,0,44.172.6L41.791,13.7a24.165,24.165,0,0,1,19.45,19.45l13.1-2.381Z" transform="translate(22.074 108.859) rotate(-47.224)" fill="#fff" fill-rule="evenodd"/>
  <path id="Path_217" data-name="Path 217" d="M8619.583,4423.863a4.109,4.109,0,0,0-4.109-4.1h-22.59a4.109,4.109,0,0,0-4.1,4.1v.093a4.109,4.109,0,0,0,4.1,4.1h22.59a4.11,4.11,0,0,0,4.11-4.1Z" transform="translate(-8465.945 -4340.136)" fill="#fff" fill-rule="evenodd"/>
  <path id="Path_218" data-name="Path 218" d="M13995.534,3637.729a3.414,3.414,0,0,0-3.415-3.411h-43.184a3.416,3.416,0,0,0-3.414,3.411v0a3.416,3.416,0,0,0,3.414,3.411h43.184a3.415,3.415,0,0,0,3.415-3.411Z" transform="translate(-13822.69 -3534.304)" fill="#fff" fill-rule="evenodd"/>
  <path id="Path_219" data-name="Path 219" d="M13995.534,3637.729a3.414,3.414,0,0,0-3.415-3.411h-43.184a3.416,3.416,0,0,0-3.414,3.411v0a3.416,3.416,0,0,0,3.414,3.411h43.184a3.415,3.415,0,0,0,3.415-3.411Z" transform="translate(-13822.69 -3522.83)" fill="#fff" fill-rule="evenodd"/>
  <path id="Path_220" data-name="Path 220" d="M13995.534,3637.729a3.414,3.414,0,0,0-3.415-3.411h-43.184a3.416,3.416,0,0,0-3.414,3.411v0a3.416,3.416,0,0,0,3.414,3.411h43.184a3.415,3.415,0,0,0,3.415-3.411Z" transform="translate(-13822.69 -3511.356)" fill="#fff" fill-rule="evenodd"/>
</svg>
