<svg id="Group_92" data-name="Group 92" xmlns="http://www.w3.org/2000/svg" width="441.173" height="354.778" viewBox="0 0 441.173 354.778">
  <path id="Path_269" data-name="Path 269" d="M473.116,521.719h-8.167l-3.884-31.5h12.052Z" transform="translate(-165.91 -176.402)" fill="#ffb6b6"/>
  <path id="Path_270" data-name="Path 270" d="M680.971,687.5l-8.719-3.547-.25-.1-4.814,3.649a10.25,10.25,0,0,0-10.249,10.247v.335h26.33V687.5Z" transform="translate(-373.984 -344.849)" fill="#2f2e41"/>
  <path id="Path_271" data-name="Path 271" d="M581.192,506.993l-7.309,3.643-17.528-26.458,10.787-5.376Z" transform="translate(-200.2 -172.293)" fill="#ffb6b6"/>
  <path id="Path_272" data-name="Path 272" d="M799.856,671.95l-1.869.928-.192.1-9.372.723-.282.019-2.682,5.409a10.244,10.244,0,0,0-4.6,13.744l.147.294,23.564-11.741Z" transform="translate(-418.187 -340.567)" fill="#2f2e41"/>
  <path id="Path_273" data-name="Path 273" d="M680.655,429.25l45.029,1.576.314-.456s3.841,8.962,3.841,16.644c0,2.554-1.776,19.259-.873,22.42.112.393-.66,1.356-.407,3.187.165,1.188,1.072.274,1.28,1.92.15,1.182-1.447,1.834-1.28,3.2.183,1.493,2.379,6.33,2.577,7.991,2.105,17.685,4.908,43.305,4.908,43.305s11.258,30.154,13.64,30.643c4,.822,6.7,8.091,4.481,9.6-1.055.72-14.688,5.562-14.688,5.562-.749.136-3.093-1.04-1.6-3.819.275-.512-1.364.79-1.637.178-.29-.651.279-3.244-.053-3.967-2.98-6.493-7.554-15.492-11.889-20.112a43.916,43.916,0,0,1-11.577-24.816l-9.944-55.133-3.408,15.461-2.82,2.786.774,6.5-.133,6.306-7.042,26.247s-1.056,49.016.64,50.572c.919.843,4.817,11.227-2.561,12.163l-13.4-1.034s-1.806-3.806-.9-5.16.849-.985-.253-3.2-.65-5.973-.65-5.973a442.492,442.492,0,0,1-2.074-53.128c.672-29.129,4.744-62.593,4.744-63.275a4.505,4.505,0,0,0-.375-2.031v-1.839l1.73-6.515Z" transform="translate(-378.988 -253.233)" fill="#785a82"/>
  <circle id="Ellipse_12" data-name="Ellipse 12" cx="17.784" cy="17.784" r="17.784" transform="translate(347.251 145.956)" fill="#75297f"/>
  <path id="Path_274" data-name="Path 274" d="M777.527,414.124a1.978,1.978,0,0,1-1.582-.791l-4.852-6.469a1.978,1.978,0,0,1,3.165-2.374l3.174,4.232,8.152-12.228a1.978,1.978,0,1,1,3.292,2.195l-9.7,14.555a1.979,1.979,0,0,1-1.591.88Z" transform="translate(-414.919 -241.129)" fill="#fff"/>
  <path id="Path_275" data-name="Path 275" d="M787.674,418.452a5.114,5.114,0,0,0-4.681-6.291l-9.112-31.046-6.164,7.154,9.807,29.069a5.141,5.141,0,0,0,10.15,1.115Z" transform="translate(-413.846 -235.912)" fill="#ffb8b8"/>
  <path id="Path_276" data-name="Path 276" d="M762.73,373.79l-1.184-4.34,1.357-2.593-.1-.3-.41-1.165-2.125-1.7.762-2.17-2.689-7.637-.659-1.325-15.434-30.99-3.7-7.432-.858-1.344-2.669-4.187-3.649-5.717a8.162,8.162,0,0,0-5.172-3.6,8.292,8.292,0,0,0-1.037-.16l-.25-.019a8.241,8.241,0,0,0-1.863.109h-.013a7.986,7.986,0,0,0-3.034,1.2,8.156,8.156,0,0,0-1.908,1.716,8.261,8.261,0,0,0-1.824,5.473l.115,3.124.115,2.842,5.416,9.794.352.64.006.019,16.663,30.151,5.025,9.09.762,1.383,3.38,2.241-.9,2.253.262,3.508,2.874,2.17,4.167,4.231.167.346,1.28-.647.122-.064.288-.083,3.963-1.2,2.407-.723.077-.026.659-.166Z" transform="translate(-395.33 -206.396)" fill="#e6e6e6"/>
  <path id="Path_277" data-name="Path 277" d="M869.185,633.842a9.772,9.772,0,0,0-10.435-3.335l-.41.122-3.674,14.346c-.55-2.138-1.728-6.965-2.471-11.689l-.064-.391-.365.16a49.823,49.823,0,0,0-10.748,6.478,51.548,51.548,0,0,0-19.275,38.819l-.006.275-.006.173.487-.173,10.441-3.732a31.168,31.168,0,0,0,25.133-9.372c4.219-4.449,7.112-10.172,9.91-15.71.819-1.613,1.658-3.278,2.516-4.878A9.933,9.933,0,0,0,869.185,633.842Z" transform="translate(-433.282 -325.512)" fill="#f2f2f2"/>
  <path id="Path_278" data-name="Path 278" d="M261.665,81.917h-1.28V32.6h92.6v1.28H261.665Z" transform="translate(-93.697 -11.73)" fill="#3f3d56"/>
  <circle id="Ellipse_13" data-name="Ellipse 13" cx="17.784" cy="17.784" r="17.784" transform="translate(255.708 0)" fill="#75297f"/>
  <path id="Path_279" data-name="Path 279" d="M634.527,186.124a1.977,1.977,0,0,1-1.582-.791l-4.852-6.469a1.978,1.978,0,1,1,3.165-2.374l3.174,4.232,8.152-12.228a1.978,1.978,0,0,1,3.292,2.195l-9.7,14.555a1.979,1.979,0,0,1-1.591.88Z" transform="translate(-363.461 -159.085)" fill="#fff"/>
  <path id="Path_280" data-name="Path 280" d="M163.665,296.685h-1.28V346h92.6v-1.28H163.665Z" transform="translate(-58.433 -106.76)" fill="#3f3d56"/>
  <circle id="Ellipse_14" data-name="Ellipse 14" cx="17.784" cy="17.784" r="17.784" transform="translate(192.973 221.495)" fill="#75297f"/>
  <path id="Path_281" data-name="Path 281" d="M536.527,532.124a1.978,1.978,0,0,1-1.582-.791l-4.852-6.469a1.978,1.978,0,1,1,3.165-2.374l3.174,4.232,8.152-12.228a1.978,1.978,0,1,1,3.292,2.195l-9.7,14.555a1.979,1.979,0,0,1-1.591.88Z" transform="translate(-328.197 -283.591)" fill="#fff"/>
  <path id="Path_282" data-name="Path 282" d="M733.712,391.018a11.593,11.593,0,0,1-.64,3.963l-.1-.019c-11.37,1.966-21.512,2.288-26.2-4.691-6.121-7.794-14.541-7.706-23.933-4.284l-1.114-1.2-1.895-2.042,1.741-1.972-1.741-3.8,1.453-4.692,1.857-.339-.5-4.039-.781-2.362,2.292-2.516,1.946-6.28-1.4-13.142A87.55,87.55,0,0,1,695.335,291.6l5.32-4.776,2.209-1.984,2.964-5.531,3.13.365,8.476.979.288.691,2.08,5.019,10.96,11.773-.493,4.968-.218,2.189-.16,1.575-.755,7.579-3.079,30.964-.23,1.645-2.477,17.8c4.026,3.892,7.586,11.388,9.295,18.238.192.762-.352,1.536-.211,2.279.2,1.05,1.063,2.048,1.159,3.028a23.3,23.3,0,0,1,.122,2.612Z" transform="translate(-382.221 -199.279)" fill="#e6e6e6"/>
  <circle id="Ellipse_15" data-name="Ellipse 15" cx="14.721" cy="14.721" r="14.721" transform="translate(315.064 48.607)" fill="#ffb6b6"/>
  <path id="Path_283" data-name="Path 283" d="M739.7,237.713a7.59,7.59,0,0,0-6.1-5.315,9.93,9.93,0,0,0-14.556-9.924,3.088,3.088,0,0,0-2.837-1.078,6.367,6.367,0,0,0-2.881,1.262,14.289,14.289,0,0,0-5.716,13.515c-.007-1.3.569,1.213,2.217,1.435a10.877,10.877,0,0,1,3.852,1.589,11.207,11.207,0,0,0,3.844,1.611c1.384.2,1.74,5.749.752,9.321-.187.677-.282,1.585.342,1.908.768.4,1.545-.6,2.4-.7a1.488,1.488,0,0,1,1.51,1.413,2.427,2.427,0,0,1-1.013,1.978,7.171,7.171,0,0,1-2.071,1l.248.352a1.972,1.972,0,0,0,2.323.947c.984,1.187,11.129-2.11,11.624-4.277a23.943,23.943,0,0,0,5.21-6.73,11.44,11.44,0,0,0,.846-8.311Z" transform="translate(-392.168 -178.402)" fill="#2f2e41"/>
  <path id="Path_284" data-name="Path 284" d="M756.3,303.714a4.279,4.279,0,0,1-3.5,3.354,7.573,7.573,0,0,1-2.605.045,17.774,17.774,0,0,1-2.5-.557q-1.517-.432-3-.973a47.586,47.586,0,0,1-8.143-3.809,48.157,48.157,0,0,1-5.608-3.828q-1.383-1.095-2.682-2.285l1.082.512-2.9-3.9q-1.4-1.882-2.8-3.764c-.058-.077-.1-.128-.122-.154v-.006c-.429-.57-.852-1.139-1.274-1.709-1.274-1.709-2.529-4.219-1.063-5.761a2.747,2.747,0,0,1,2.388-.723,3.8,3.8,0,0,1,1.312.423,9.258,9.258,0,0,1,2.785,2.81,4.873,4.873,0,0,1,4.692-1.754c.1.006.186.019.275.032,1.824.314,2.612-.672,4.193.294.736.448,1.184,2.753,1.92,3.2.416.256,1.959.64,2.382.9.832.512.621,2.426,1.46,2.938.621.378,2.285-.64,2.906-.263.653.4,1.562,3.066,2.215,3.463,1.3.8,2.343-.659,3.642.134,1.671,1.031,3.45,2.176,4.155,4.007.621,1.613-.179,3.822-1.722,4.283A2.859,2.859,0,0,1,756.3,303.714Z" transform="translate(-396.866 -199.567)" fill="#e6e6e6"/>
  <path id="Path_285" data-name="Path 285" d="M746.369,310.206l-.16,1.575a21.744,21.744,0,0,1-5.313-1.2,11.225,11.225,0,0,1-5.589-4.155c-.871-1.306-1.78-2.605-2.689-3.86-1.511-2.1-3.009-4.059-4.251-5.653-1.517-1.927-2.657-3.322-3.047-3.783-.058-.077-.1-.128-.122-.154l-.019-.019.019.013c7.606,9.627,14.791,15.178,21.388,15.044C746.587,308.017,747.361,310.564,746.369,310.206Z" transform="translate(-398.539 -204.19)" opacity="0.2"/>
  <path id="Path_286" data-name="Path 286" d="M649.453,197.288a5.114,5.114,0,0,0,4.558,6.38l8.51,31.217,6.3-7.033L659.58,198.6a5.141,5.141,0,0,0-10.127-1.311Z" transform="translate(-371.231 -168.365)" fill="#ffb8b8"/>
  <path id="Path_287" data-name="Path 287" d="M701.312,284.915l-.058-2.842L695.889,271.9l-.2-.371-.013-.019-4.116-7.8L671.7,226.055l-2.133-.784.107-3.059-.107-3.343L667,217.152l-1.093-2.072-1.549.442h-.006l-.045.013-6.773,1.9h-.006l-1.408.794-1.28,3.841-.28,1.818.28,3.3,3.2.64-1.06,3.387,3.218,9.743c4.026,17.028,9.526,31.726,19.019,40.119l.781,1.28,6.177,10.108a8.2,8.2,0,0,0,8.252,3.835h.006a8.118,8.118,0,0,0,3.06-1.139,8,8,0,0,0,2.215-2.029,8.248,8.248,0,0,0,1.658-5.089Z" transform="translate(-373.128 -176.166)" fill="#e6e6e6"/>
  <path id="Path_288" data-name="Path 288" d="M804.686,707.331l-173.963.2a.762.762,0,1,1,0-1.524l173.963-.2a.762.762,0,0,1,0,1.524Z" transform="translate(-364.276 -352.75)" fill="#cacaca"/>
  <path id="Path_289" data-name="Path 289" d="M268.466,273.344a37.628,37.628,0,0,1,10.273-25.879l-22.676-31.211a11.059,11.059,0,0,0-16.685-1.406,80.962,80.962,0,0,0-24.448,58.226,82.441,82.441,0,0,0,.913,12.237A11.134,11.134,0,0,0,221,293.141a11.011,11.011,0,0,0,9.207,1.106l39.156-12.723A37.864,37.864,0,0,1,268.466,273.344Z" transform="translate(-214.93 -174.946)" fill="#f2f2f2"/>
  <path id="Path_290" data-name="Path 290" d="M274.63,327.319l-40.707,13.227a11.047,11.047,0,0,0-6.524,15.368,81.61,81.61,0,0,0,60.726,44.57,11.066,11.066,0,0,0,12.749-10.932v-38.02A37.842,37.842,0,0,1,274.63,327.319Z" transform="translate(-219.012 -216.554)" fill="#e6e6e6"/>
  <path id="Path_291" data-name="Path 291" d="M446.9,352.417a12.333,12.333,0,0,0-7.557-6.943l-44.4-14.425a37.8,37.8,0,0,1-30.132,22.72v46.257a12.319,12.319,0,0,0,14.192,12.17,90.85,90.85,0,0,0,67.6-49.615,12.22,12.22,0,0,0,.294-10.164Z" transform="translate(-268.865 -217.896)" fill="#785a82"/>
  <path id="Path_292" data-name="Path 292" d="M448.311,196.71a12.31,12.31,0,0,0-18.573,1.565l-30.353,41.777a37.648,37.648,0,0,1,10.995,26.636c0,.92-.044,1.829-.109,2.732L458.518,285.1a12.333,12.333,0,0,0,15.991-9.947,91.746,91.746,0,0,0,1.017-13.625A90.126,90.126,0,0,0,448.311,196.71Z" transform="translate(-281.304 -168.291)" fill="#75297f"/>
  <path id="Path_293" data-name="Path 293" d="M331.289,223.255a37.581,37.581,0,0,1,18.543,4.869l18.526-25.5a11.1,11.1,0,0,0,1.815-9.122,10.879,10.879,0,0,0-5.628-7.172,81.7,81.7,0,0,0-73.861-.108,11.162,11.162,0,0,0-5.821,7.343,11,11,0,0,0,1.8,9.06l21.016,28.927A37.6,37.6,0,0,1,331.289,223.255Z" transform="translate(-239.984 -162.626)" fill="#e6e6e6"/>
</svg>
