<svg id="Group_105" data-name="Group 105" xmlns="http://www.w3.org/2000/svg" width="399.616" height="461.162" viewBox="0 0 399.616 461.162">
  <g id="Group_101" data-name="Group 101" transform="translate(263.641 410.191)">
    <path id="Path_294" data-name="Path 294" d="M360.982,542.853l-8.171.169-4.554-32.134,12.057-.25Z" transform="translate(-332.146 -510.638)" fill="#ffb6b6"/>
    <path id="Path_295" data-name="Path 295" d="M328.2,561.431h0a2.188,2.188,0,0,0,2.188,2.188h16.218a13.282,13.282,0,0,1,8.1-8.033l.449,8.033h8.366V544.842s.558-4.09-4.09-7.623-.217,0-.217,0l-1.828-7.994-12.642,1.3-.093,12.549-6.135,12.456-9,3.891a2.188,2.188,0,0,0-1.319,2.008Z" transform="translate(-328.201 -514.294)" fill="#160016"/>
  </g>
  <g id="Group_102" data-name="Group 102" transform="translate(123.645 408.625)">
    <path id="Path_296" data-name="Path 296" d="M191.851,542.969l-7.869-2.205,4.95-32.075,11.613,3.254Z" transform="translate(-159.835 -508.689)" fill="#ffb6b6"/>
    <path id="Path_297" data-name="Path 297" d="M154.017,552.675h0a2.188,2.188,0,0,0,1.46,2.728L171,560.1a13.282,13.282,0,0,1,10.083-5.341l-1.9,7.819L187.192,565l5.44-17.972s1.719-3.753-1.707-8.481-.207-.063-.207-.063l.566-8.181-12.477-2.417-3.724,11.984L165.6,550.018l-9.74,1.118a2.188,2.188,0,0,0-1.845,1.54Z" transform="translate(-153.922 -512.466)" fill="#160016"/>
  </g>
  <path id="Path_298" data-name="Path 298" d="M301.648,135.306l-2.034-.126c.145-.5.29-.989.422-1.486,1.127-4.176-1.354-9.492-1.537-13.5-.957,4.239.68,9.454-1.014,13.478-.189.447-.378.894-.579,1.335l-55.091-3.477-3.149-30.232A31.5,31.5,0,0,1,301.1,95.4c.831,4.4,6.021,19.323.548,39.906Z" transform="translate(-46.947 -13.731)" fill="#2f2e41"/>
  <path id="Path_299" data-name="Path 299" d="M195.462,294.242l5.287-15.209,9.109,1.808L203.7,296.722a5.39,5.39,0,1,1-8.235-2.48Z" transform="translate(-38.014 -54.888)" fill="#ffb6b6"/>
  <path id="Path_300" data-name="Path 300" d="M342.752,303.423,337.795,288.1l8.356-4.053,4.665,16.383a5.39,5.39,0,1,1-8.064,2.989Z" transform="translate(-66.447 -55.875)" fill="#ffb6b6"/>
  <path id="Path_301" data-name="Path 301" d="M244.264,218.44v26l56.774-6.963-15.924-32.033Z" transform="translate(-48.049 -40.413)" fill="#ffb6b6"/>
  <path id="Path_302" data-name="Path 302" d="M276.711,132.528H255.956L249,145.125H230.247s-8.332,61.724,2.376,62.983l3.149.63,3.575,1.127c-1.319,1.376-1.11,3.019,0,4.82-1.141.993.1,2.478,1.607,4.016l54.652-4.924-1.26-6.928s7.558,0,4.409-8.818V149.7l-20.155-5.2-1.889-11.967Z" transform="translate(-44.684 -26.069)" fill="#75297f"/>
  <path id="Path_303" data-name="Path 303" d="M307.662,157.517l7.066-3.615a12.818,12.818,0,0,1,9.939,6.765c3.149,6.3,3.149,51.646,3.149,51.646L342.3,264.588l-12.6,6.928-17.124-48.5-4.92-65.5Z" transform="translate(-60.52 -30.274)" fill="#75297f"/>
  <path id="Path_304" data-name="Path 304" d="M232.534,152.029l-7.066-3.615a12.818,12.818,0,0,0-9.94,6.765c-3.149,6.3-3.149,51.646-3.149,51.646L197.893,259.1l12.6,6.928,17.124-48.5,4.92-65.5Z" transform="translate(-38.927 -29.194)" fill="#75297f"/>
  <path id="Path_305" data-name="Path 305" d="M286.276,233.673l-54.8,10.077v26.36a7.36,7.36,0,0,0,0,6.7c-2.055,2.9-1.312,7.165,0,11.7l-26.15,75.259-19.2,99.786,14.486,3.149,39.05-89.436,32.751-69.282L316.508,468.6l13.227-1.26S348,280.281,286.276,233.674Z" transform="translate(-36.614 -45.966)" fill="#160016"/>
  <circle id="Ellipse_16" data-name="Ellipse 16" cx="17.866" cy="17.866" r="17.866" transform="translate(201.839 67.472)" fill="#ffb6b6"/>
  <path id="Path_306" data-name="Path 306" d="M292.175,94.99v3.464L272.02,92.786l-15.11,3.162a15.733,15.733,0,0,0-1.984-6.563,26.364,26.364,0,0,1,.038,6.972l-10.027,2.1V94.99a23.619,23.619,0,1,1,47.237,0Z" transform="translate(-48.181 -14.039)" fill="#2f2e41"/>
  <g id="Group_103" data-name="Group 103" transform="translate(73.745 379.618)">
    <path id="Path_307" data-name="Path 307" d="M433.816,539.592a1.823,1.823,0,0,0,1.321-3.16l-.125-.5.05-.119a4.9,4.9,0,0,1,9.03.034c1.477,3.557,3.357,7.12,3.82,10.881a14.483,14.483,0,0,1-.254,4.981A58.063,58.063,0,0,0,452.94,527.6a56.049,56.049,0,0,0-.348-6.252q-.288-2.553-.8-5.069a58.736,58.736,0,0,0-11.648-24.894,15.631,15.631,0,0,1-6.5-6.745,11.923,11.923,0,0,1-1.084-3.258c.316.042,1.193-4.779.955-5.074.441-.669,1.23-1,1.712-1.655,2.4-3.248,5.7-2.681,7.419,1.733,3.681,1.858,3.716,4.939,1.458,7.9-1.437,1.885-1.634,4.436-2.9,6.454.13.166.265.327.394.493a59.117,59.117,0,0,1,6.17,9.775,24.574,24.574,0,0,1,1.467-11.414c1.4-3.388,4.036-6.241,6.354-9.17a5.044,5.044,0,0,1,8.984,2.477l.014.129q-.516.291-1.011.618a2.473,2.473,0,0,0,1,4.5l.05.008a24.6,24.6,0,0,1-.649,3.679c2.974,11.5-3.446,15.688-12.613,15.876-.2.1-.4.207-.6.306a60.34,60.34,0,0,1,3.248,15.285,57.232,57.232,0,0,1-.042,9.24l.016-.109a15.123,15.123,0,0,1,5.162-8.732c3.973-3.263,9.586-4.465,13.872-7.088a2.838,2.838,0,0,1,4.347,2.761l-.018.115a16.6,16.6,0,0,0-1.863.9q-.516.291-1.011.618a2.473,2.473,0,0,0,1,4.5l.05.008.1.016a24.625,24.625,0,0,1-4.529,7.092c-1.859,10.039-9.845,10.991-18.387,8.068h-.005a60.321,60.321,0,0,1-4.052,11.829H434.179c-.052-.161-.1-.327-.145-.488a16.449,16.449,0,0,0,4.005-.239c-1.074-1.318-2.148-2.646-3.222-3.964a.892.892,0,0,1-.067-.078c-.545-.674-1.095-1.344-1.639-2.018h0a24.09,24.09,0,0,1,.706-6.137h0Z" transform="translate(-158.833 -472.578)" fill="#75297f"/>
    <path id="Path_308" data-name="Path 308" d="M91.8,572.265a.953.953,0,0,0,.956.956h323.96a.956.956,0,0,0,0-1.912H92.759a.953.953,0,0,0-.956.956Z" transform="translate(-91.803 -491.999)" fill="#ccc"/>
  </g>
  <path id="Path_309" data-name="Path 309" d="M18.626,0A18.626,18.626,0,0,0,0,18.626v261.3H1.642V129.438a127.8,127.8,0,0,1,127.8-127.8l245.188-.3L374.327,0H18.626Z" fill="#e6e6e6"/>
  <path id="Path_310" data-name="Path 310" d="M86.057,69.2a6.944,6.944,0,1,1-6.942-7.1A7.021,7.021,0,0,1,86.057,69.2Z" transform="translate(-14.197 -12.216)" fill="#3f3d56"/>
  <path id="Path_311" data-name="Path 311" d="M115.911,69.2a6.944,6.944,0,1,1-6.942-7.1A7.021,7.021,0,0,1,115.911,69.2Z" transform="translate(-20.07 -12.216)" fill="#3f3d56"/>
  <path id="Path_312" data-name="Path 312" d="M145.765,69.2a6.944,6.944,0,1,1-6.942-7.1A7.021,7.021,0,0,1,145.765,69.2Z" transform="translate(-25.942 -12.216)" fill="#3f3d56"/>
  <g id="Group_104" data-name="Group 104" transform="translate(98.669 286.617)">
    <path id="Path_313" data-name="Path 313" d="M408.8,356.8H127.651a4.82,4.82,0,1,0,0,9.639H408.8a4.82,4.82,0,1,0,0-9.639Z" transform="translate(-122.831 -356.803)" fill="#e6e6e6"/>
    <path id="Path_314" data-name="Path 314" d="M313.613,356.8v9.639H127.651a4.82,4.82,0,1,1,0-9.639Z" transform="translate(-122.831 -356.803)" fill="#75297f"/>
  </g>
  <circle id="Ellipse_17" data-name="Ellipse 17" cx="17.672" cy="17.672" r="17.672" transform="translate(135.219 241.632)" fill="#75297f"/>
  <path id="Path_315" data-name="Path 315" d="M184.634,329.924a1.806,1.806,0,0,1-1.8-1.8V315.368a1.8,1.8,0,0,1,2.7-1.565l12.4,7.084a1.8,1.8,0,0,1-.145,3.207l-12.4,5.667A1.805,1.805,0,0,1,184.634,329.924Z" transform="translate(-35.965 -61.68)" fill="#fff"/>
  <path id="Path_316" data-name="Path 316" d="M469.659,328.6h0a5.292,5.292,0,0,0-6.848-3.019h0a5.291,5.291,0,0,0-3.047,6.77l-.079.031,3.829,9.867,9.079-3.524a5.317,5.317,0,0,0,.895-.258h0a5.292,5.292,0,0,0,3.019-6.848h0a5.292,5.292,0,0,0-6.848-3.019h0Z" transform="translate(-90.375 -63.973)" fill="#ff6584"/>
</svg>
