<svg xmlns="http://www.w3.org/2000/svg" xmlns:xlink="http://www.w3.org/1999/xlink" width="268.938" height="231.971" viewBox="0 0 268.938 231.971">
  <defs>
    <linearGradient id="linear-gradient" x1="0.575" y1="0.166" x2="-0.193" y2="0.691" gradientUnits="objectBoundingBox">
      <stop offset="0" stop-color="#ff00dc"/>
      <stop offset="1" stop-color="#5b41a5"/>
    </linearGradient>
    <filter id="Path_112_-_Outline" x="209.692" y="89.826" width="59.246" height="27.827" filterUnits="userSpaceOnUse">
      <feOffset dy="2" input="SourceAlpha"/>
      <feGaussianBlur stdDeviation="2" result="blur"/>
      <feFlood result="color"/>
      <feComposite operator="out" in="SourceGraphic" in2="blur"/>
      <feComposite operator="in" in="color"/>
      <feComposite operator="in" in2="SourceGraphic"/>
    </filter>
    <linearGradient id="linear-gradient-2" x1="0.239" y1="0.223" x2="0.595" y2="0.965" gradientUnits="objectBoundingBox">
      <stop offset="0" stop-color="#e500c6"/>
      <stop offset="1" stop-color="#160054"/>
    </linearGradient>
  </defs>
  <g id="Group_111" data-name="Group 111" transform="translate(-5.985 0)">
    <g data-type="innerShadowGroup">
      <path id="Path_112_-_Outline-2" data-name="Path 112 - Outline" d="M52.983,27.827H51.59a7.674,7.674,0,0,1-3.649-.9l-.028-.015a8.376,8.376,0,0,1-3.268-3.444l-.03-.059c-.093-.187-.2-.391-.319-.6l-.087-.157-.057-.17c-.019-.056-.065-.184-.168-.418l-.052-.114-.041-.041-5.7-12.674-.225-.544a1.57,1.57,0,0,0-.088-.2l-.067-.112-.051-.119a1.3,1.3,0,0,0-.111-.208l-.067-.1-.054-.108a1.8,1.8,0,0,0-.29-.454.286.286,0,0,0-.136-.036h-.343V27.827H29.448V6.285a6.171,6.171,0,0,1,1.837-4.442A6.127,6.127,0,0,1,35.712,0H37.1a7.6,7.6,0,0,1,3.609.9l.01.005a8.032,8.032,0,0,1,3.268,3.419,7.479,7.479,0,0,1,.444.852l.01.024c.064.151.142.318.231.5l.036.072.109.274c.036.09.054.132.06.146l.027.057,5.516,12.265.062.125.019.039.075.075.146.392c.06.16.112.3.154.405.084.165.139.263.171.317l.025.043a1.92,1.92,0,0,0,.419.565.287.287,0,0,0,.093.011h.3V0h7.353V21.541a6.285,6.285,0,0,1-6.263,6.285Zm-24.737,0H10.72a10.348,10.348,0,0,1-7.57-3.162A10.422,10.422,0,0,1,0,17.068v-6.31a10.422,10.422,0,0,1,3.151-7.6A10.348,10.348,0,0,1,10.72,0H28.245V7.339H10.72a3.2,3.2,0,0,0-2.4,1.011,3.221,3.221,0,0,0-.971,1.873h19.1V17.6H7.35a3.221,3.221,0,0,0,.971,1.873,3.2,3.2,0,0,0,2.4,1.012H28.245Z" transform="translate(215.677 89.826)" fill="url(#linear-gradient)"/>
      <g transform="matrix(1, 0, 0, 1, 5.98, 0)" filter="url(#Path_112_-_Outline)">
        <path id="Path_112_-_Outline-3" data-name="Path 112 - Outline" d="M52.983,27.827H51.59a7.674,7.674,0,0,1-3.649-.9l-.028-.015a8.376,8.376,0,0,1-3.268-3.444l-.03-.059c-.093-.187-.2-.391-.319-.6l-.087-.157-.057-.17c-.019-.056-.065-.184-.168-.418l-.052-.114-.041-.041-5.7-12.674-.225-.544a1.57,1.57,0,0,0-.088-.2l-.067-.112-.051-.119a1.3,1.3,0,0,0-.111-.208l-.067-.1-.054-.108a1.8,1.8,0,0,0-.29-.454.286.286,0,0,0-.136-.036h-.343V27.827H29.448V6.285a6.171,6.171,0,0,1,1.837-4.442A6.127,6.127,0,0,1,35.712,0H37.1a7.6,7.6,0,0,1,3.609.9l.01.005a8.032,8.032,0,0,1,3.268,3.419,7.479,7.479,0,0,1,.444.852l.01.024c.064.151.142.318.231.5l.036.072.109.274c.036.09.054.132.06.146l.027.057,5.516,12.265.062.125.019.039.075.075.146.392c.06.16.112.3.154.405.084.165.139.263.171.317l.025.043a1.92,1.92,0,0,0,.419.565.287.287,0,0,0,.093.011h.3V0h7.353V21.541a6.285,6.285,0,0,1-6.263,6.285Zm-24.737,0H10.72a10.348,10.348,0,0,1-7.57-3.162A10.422,10.422,0,0,1,0,17.068v-6.31a10.422,10.422,0,0,1,3.151-7.6A10.348,10.348,0,0,1,10.72,0H28.245V7.339H10.72a3.2,3.2,0,0,0-2.4,1.011,3.221,3.221,0,0,0-.971,1.873h19.1V17.6H7.35a3.221,3.221,0,0,0,.971,1.873,3.2,3.2,0,0,0,2.4,1.012H28.245Z" transform="translate(209.69 89.83)" fill="#fff"/>
      </g>
    </g>
    <g id="Group_57" data-name="Group 57" transform="translate(68.802) rotate(30)">
      <path id="Path_115" data-name="Path 115" d="M172.022,37.577c-10.18,20.3-40.374,31.249-92.069,33.282a46.051,46.051,0,0,1-8.365,22.689c-10.865,15.3-29.768,23.287-45.206,27.4A138.009,138.009,0,0,1,2,125.209L0,98.286s73.718,5.093,67.178-39.975c31.567-4.031,57.465-3.776,72.407-11.427C174.318,29.1,168.231,0,168.231,0,173.247,6.76,179.679,22.284,172.022,37.577Z" transform="translate(50.048 12.395)" fill="url(#linear-gradient-2)"/>
      <path id="Path_116" data-name="Path 116" d="M174.429,0l-.014.007c-.767.31-43.458,17.718-54.879,48.838a44.208,44.208,0,0,0-2.31,21.861c-7.721.985-16.029,1.8-24.974,2.42-12.7.867-26.67,1.337-42.052,1.314-47.606-.073-23.094,29.4-20.386,32.491.145.173.229.264.229.264L10.423,125.635C5.894,120.8.017,111.235,0,100.347A29.087,29.087,0,0,1,2.4,88.7c8.942-20.749,40.043-31,97.533-32.006a45.348,45.348,0,0,1,8.825-29.524C127.732,1.757,169.708.1,174.429,0Z" transform="translate(0 0)" fill="url(#linear-gradient-2)"/>
      <path id="Path_117" data-name="Path 117" d="M28.94,39.975c10.32-.767,39.362-5.937,49.627-20.451a18.832,18.832,0,0,0,3.046-6.589c-8.752.118-16.5.452-23.359.954-46.66,3.4-51.987,14.318-52.228,14.865-.923,2.159,1.669,6.2,2.68,7.47C6,33.132-18.514,3.661,29.091,3.734c15.382.024,29.353-.447,42.052-1.314C80.088,1.8,88.4.985,96.118,0,102.658,45.068,28.94,39.975,28.94,39.975Z" transform="translate(21.108 70.706)" fill="url(#linear-gradient-2)"/>
      <path id="Path_118" data-name="Path 118" d="M72.878,59.279C57.936,66.93,32.038,66.675.471,70.706a44.208,44.208,0,0,1,2.31-21.861C14.2,17.725,56.893.317,57.66.007L57.674,0l.712,26.983c-8.628.229-35.377,3.727-44.815,16.428-1.828,2.456-3.917,6.289-3.464,12.946,59.286-2.028,69.538-15.545,71.055-18.438,2.247-4.29-1.231-9.435-1.384-9.656L101.524,12.4S107.611,41.492,72.878,59.279Z" transform="translate(116.755 0)" fill="url(#linear-gradient-2)"/>
    </g>
  </g>
</svg>
