<svg xmlns="http://www.w3.org/2000/svg" xmlns:xlink="http://www.w3.org/1999/xlink" width="1308.516" height="4221.583" viewBox="0 0 1308.516 4221.583">
  <defs>
    <linearGradient id="linear-gradient" x1="0.635" y1="1.014" x2="0.235" gradientUnits="objectBoundingBox">
      <stop offset="0" stop-color="#640056"/>
      <stop offset="1" stop-color="#160054"/>
    </linearGradient>
  </defs>
  <path id="Path_317" data-name="Path 317" d="M1238.431,5245.335l-4.072-2.9c13.311-18.683,29.169-39.549,48.482-63.791l3.911,3.115C1267.495,5205.93,1251.689,5226.726,1238.431,5245.335Zm98.918-125.475-3.842-3.2c16.737-20.1,34.38-41.034,51.441-61.279l3.823,3.222C1371.715,5078.844,1354.077,5099.772,1337.349,5119.86Zm102.891-122.523-3.838-3.2c19.1-22.878,35.742-43.06,50.878-61.7l3.881,3.152C1476.01,4954.242,1459.354,4974.44,1440.24,4997.336Zm100.735-124.423-3.952-3.063c17.267-22.275,33.4-43.783,47.951-63.925l4.053,2.928C1574.238,4829.325,1558.519,4850.279,1540.975,4872.913Zm93.461-130.077-4.192-2.725c15.441-23.757,29.294-46.752,41.176-68.345l4.381,2.411C1663.86,4695.877,1649.943,4718.977,1634.436,4742.836Zm76.278-140.927-4.629-1.89c5.4-13.222,10.086-26.213,13.926-38.611a354.093,354.093,0,0,0,9.448-37.254l4.909.949a359.03,359.03,0,0,1-9.581,37.785C1720.9,4575.424,1716.169,4588.553,1710.714,4601.909Zm21.255-156.426a169.221,169.221,0,0,0-4.21-19.1,159.112,159.112,0,0,0-6.421-18.343,156.6,156.6,0,0,0-8.73-17.558,161.835,161.835,0,0,0-11.143-16.744l3.983-3.022a166.911,166.911,0,0,1,11.489,17.263,161.709,161.709,0,0,1,9.01,18.121,164.185,164.185,0,0,1,6.624,18.921,174.19,174.19,0,0,1,4.335,19.665Zm-89.843-123.267a318.8,318.8,0,0,0-33.231-17.255c-12.091-5.437-25.248-10.547-39.106-15.189l1.588-4.741c14.014,4.694,27.327,9.866,39.568,15.37a323.811,323.811,0,0,1,33.754,17.528Zm-149.381-52.439c-24.322-4.8-50.871-8.826-78.909-11.965l.556-4.969c28.176,3.155,54.863,7.2,79.321,12.028Zm-158.469-18.4c-25.277-1.342-52.141-2.155-79.845-2.417l.047-5c27.776.263,54.713,1.079,80.063,2.424Zm-160.037-4.744c-27.221-1.464-54.091-3.647-79.865-6.488l.548-4.97c25.682,2.832,52.458,5.007,79.586,6.466Zm-159.2-17.8c-26.888-4.759-53.242-10.442-78.33-16.894l1.245-4.842c24.965,6.419,51.194,12.076,77.956,16.813Zm-155.086-40.245a773.37,773.37,0,0,1-74.133-30.663l2.155-4.512a768.51,768.51,0,0,0,73.652,30.463Zm-144.394-69.407c-11.51-7.293-22.839-15-33.671-22.9-10.679-7.793-21.173-16-31.188-24.383l3.209-3.834c9.932,8.315,20.337,16.449,30.926,24.177,10.744,7.841,21.981,15.484,33.4,22.719Zm-122.667-102.99c-8.982-9.969-17.721-20.4-25.976-31-8.116-10.42-15.988-21.293-23.4-32.316l4.15-2.789c7.345,10.927,15.148,21.7,23.193,32.033,8.182,10.505,16.844,20.842,25.746,30.723Zm-89.5-132.838c-5.832-11.866-11.4-24.18-16.557-36.6-5.056-12.181-9.851-24.8-14.253-37.506l4.724-1.637c4.369,12.613,9.129,25.137,14.147,37.226,5.115,12.323,10.641,24.54,16.426,36.312Zm-52.808-151.265c-5.788-25.36-10.506-51.93-14.024-78.973l4.958-.645c3.5,26.887,8.188,53.3,13.941,78.506Zm-21.008-158.855c-1.222-25.99-1.5-52.96-.828-80.161l5,.124c-.669,27.082-.392,53.931.824,79.8Zm8.708-159.741-4.981-.438c2.291-26.036,5.422-52.815,9.306-79.593l4.948.718C443.686,3360.865,440.566,3387.549,438.284,3413.492Zm22.788-158.029-4.905-.971c5.119-25.871,10.988-52.175,17.445-78.18l4.853,1.2C472.027,3203.445,466.175,3229.669,461.072,3255.463Zm38.457-155.012-4.791-1.432c7.733-25.885,16.068-51.512,24.774-76.167l4.715,1.665C515.548,3049.095,507.238,3074.643,499.529,3100.45Zm53.406-150.406-4.6-1.97c5.079-11.847,10.847-23.934,17.143-35.925,6.085-11.588,12.846-23.434,20.1-35.211l4.257,2.622c-7.19,11.68-13.894,23.426-19.926,34.913C563.674,2926.349,557.963,2938.317,552.935,2950.044Zm82.391-135.932-3.959-3.053c15.415-20,32.215-40.133,51.359-61.562l3.728,3.332C667.391,2774.167,650.667,2794.213,635.326,2814.112ZM741.176,2694.65l-3.566-3.5c16.794-17.087,35.438-35.482,57-56.237l3.467,3.6C776.55,2659.234,757.938,2677.6,741.176,2694.65Zm114.873-111.237-3.432-3.637,4.268-4.027c17.763-16.762,36.132-34.094,53.772-51l3.46,3.609c-17.654,16.923-36.029,34.262-53.8,51.03ZM971.24,2472.237l-3.562-3.51c20.718-21.023,38.576-40.084,54.6-58.275l3.753,3.3C1009.945,2432.018,992.024,2451.147,971.24,2472.237Zm105.06-120.979-4.057-2.922c8.256-11.464,15.862-22.856,22.607-33.86,7.028-11.466,13.362-22.9,18.824-33.988l4.485,2.21c-5.53,11.224-11.938,22.795-19.046,34.391C1092.3,2328.2,1084.628,2339.695,1076.3,2351.258Zm68.089-144.584-4.912-.932a228.005,228.005,0,0,0,4.02-39.071,216.182,216.182,0,0,0-3.089-39.6l4.928-.846a221.2,221.2,0,0,1,3.16,40.52A233,233,0,0,1,1144.388,2206.674Zm-30.931-153.5a213.481,213.481,0,0,0-23.259-31.832,246.5,246.5,0,0,0-28.569-27.429l3.171-3.866a251.5,251.5,0,0,1,29.149,27.989,218.481,218.481,0,0,1,23.8,32.58ZM994.623,1951.564c-21.385-10.624-45.453-20.593-73.579-30.477l1.658-4.717c28.322,9.953,52.575,20,74.146,30.716Zm-149.744-54.458c-17.351-5.012-35.145-9.951-52.353-14.727-8.09-2.246-16.456-4.568-24.659-6.865l1.348-4.815c8.2,2.3,16.561,4.617,24.647,6.862,17.221,4.78,35.028,9.723,52.4,14.741Zm-153.8-44.363c-28.928-9.331-53.525-18.48-75.194-27.97l2.006-4.58c21.514,9.422,45.956,18.513,74.723,27.791Zm-145.631-66.665a264.3,264.3,0,0,1-31.514-25.853,214.8,214.8,0,0,1-26.123-30.28l4.081-2.888a209.791,209.791,0,0,0,25.515,29.571,259.314,259.314,0,0,0,30.916,25.359ZM455.56,1656.239a248.885,248.885,0,0,1-5.392-39.352,304.56,304.56,0,0,1,.477-40.948l4.985.384a299.578,299.578,0,0,0-.471,40.273,243.918,243.918,0,0,0,5.281,38.558Zm14.252-158.04-4.821-1.325c3.376-12.283,7.367-25.019,11.861-37.856,4.319-12.337,9.22-25.1,14.565-37.931l4.616,1.923c-5.308,12.743-10.174,25.414-14.462,37.661C477.115,1473.4,473.158,1486.026,469.812,1498.2ZM530.12,1350.9l-4.426-2.326c11.854-22.56,25.224-45.982,39.737-69.616l4.261,2.617C555.237,1305.119,541.923,1328.443,530.12,1350.9Zm83.221-136.194-4.115-2.84c14.779-21.412,30.6-43.238,47.025-64.87l3.982,3.024C643.854,1171.6,628.077,1193.36,613.341,1214.71Zm96.526-127.282-3.852-3.188c30.957-37.4,52.344-60.263,52.556-60.489l3.647,3.42C762.007,1027.4,740.716,1050.154,709.867,1087.428Z" transform="translate(-428.39 -1023.751)" fill="url(#linear-gradient)"/>
</svg>
