<svg id="c0abab6d25cae5ba11eaf244b03bb085" xmlns="http://www.w3.org/2000/svg" width="662.253" height="331.962" viewBox="0 0 662.253 331.962">
  <path id="Path_130" data-name="Path 130" d="M138.95,664.188c0-172.83,140.106-312.935,312.936-312.935S764.821,491.358,764.821,664.188" transform="translate(-116.751 -351.032)" fill="#ffbe55" opacity="0.07"/>
  <g id="Group_63" data-name="Group 63" transform="translate(442.823 210.896)">
    <path id="Path_131" data-name="Path 131" d="M667.643,607.021h-17.48a.559.559,0,0,0-.559.559v13.263a6.987,6.987,0,0,0,6.987,6.987h4.624a6.987,6.987,0,0,0,6.987-6.987V607.58a.56.56,0,0,0-.56-.559Z" transform="translate(-649.604 -607.021)" fill="#ffbe55"/>
    <path id="Path_132" data-name="Path 132" d="M668.617,625.957c3.945-2.227,10.711-8.8,9.585-13.425a3.875,3.875,0,0,0-2.186-2.691c-2.614-1.215-6.356.252-6.773.423l1.245,2.6c.9-.367,3.109-.968,4.148-.483a1,1,0,0,1,.565.777c.657,2.7-4.638,8.375-8.187,10.379l1.6,2.423Z" transform="translate(-652.674 -607.434)" fill="#ffbe55"/>
  </g>
  <path id="Path_133" data-name="Path 133" d="M495.911,607.932h-90.4a2.757,2.757,0,0,1-2.757-2.757V553.33a2.756,2.756,0,0,1,2.756-2.756h90.4a2.756,2.756,0,0,1,2.756,2.756v51.845A2.755,2.755,0,0,1,495.911,607.932Z" transform="translate(-163.261 -386.173)" fill="#fafafa"/>
  <path id="Path_134" data-name="Path 134" d="M468.988,627.684a8.3,8.3,0,0,1-.489-2.906v-4.57h-20.01v4.57a8.3,8.3,0,0,1-.489,2.906c-.478,1.275-1.393,2.691-3.1,2.691h27.189C470.381,630.375,469.466,628.959,468.988,627.684Z" transform="translate(-170.691 -398.45)" fill="#fafafa"/>
  <path id="Path_135" data-name="Path 135" d="M636.509,638.689H349.274a1.745,1.745,0,0,1-1.745-1.745v-2.684a1.744,1.744,0,0,1,1.745-1.745H636.509a1.744,1.744,0,0,1,1.745,1.745v2.684A1.744,1.744,0,0,1,636.509,638.689Z" transform="translate(-153.525 -400.62)" fill="#d3d3d3"/>
  <path id="Path_136" data-name="Path 136" d="M407.9,640.01h6.6v74.161h-6.6Zm180.5,0H595v74.161h-6.6Z" transform="translate(-164.169 -401.941)" fill="#d3d3d3"/>
  <path id="Path_137" data-name="Path 137" d="M495.911,596.856h-90.4a2.757,2.757,0,0,1-2.757-2.757V542.254a2.757,2.757,0,0,1,2.757-2.757h90.4a2.756,2.756,0,0,1,2.756,2.756V594.1a2.756,2.756,0,0,1-2.756,2.758Z" transform="translate(-163.261 -384.22)" fill="#75297f"/>
  <path id="Path_138" data-name="Path 138" d="M407.264,543.372h88.617v50.389H407.264Zm190.13,63.29h-90.4a2.757,2.757,0,0,1-2.757-2.757V552.06a2.757,2.757,0,0,1,2.757-2.757h90.4a2.757,2.757,0,0,1,2.757,2.757v51.845A2.758,2.758,0,0,1,597.394,606.662Z" transform="translate(-164.056 -384.903)" fill="#fafafa"/>
  <path id="Path_139" data-name="Path 139" d="M591.226,627.684a8.3,8.3,0,0,1-.489-2.906v-4.57h-20.01v4.57a8.3,8.3,0,0,1-.489,2.906c-.478,1.275-1.393,2.691-3.1,2.691h27.189C592.619,630.375,591.7,628.959,591.226,627.684Z" transform="translate(-192.242 -398.45)" fill="#fafafa"/>
  <path id="Path_140" data-name="Path 140" d="M618.15,596.856h-90.4a2.757,2.757,0,0,1-2.757-2.757V542.254a2.757,2.757,0,0,1,2.757-2.757h90.4a2.757,2.757,0,0,1,2.757,2.757V594.1a2.758,2.758,0,0,1-2.758,2.757Z" transform="translate(-184.812 -384.22)" fill="#75297f"/>
  <path id="Path_141" data-name="Path 141" d="M529.5,543.372h88.617v50.389H529.5Z" transform="translate(-185.607 -384.903)" fill="#fafafa"/>
  <path id="Path_142" data-name="Path 142" d="M658.57,595.227a6.325,6.325,0,0,0,1.666-.908,3.72,3.72,0,0,0,1.184-1.358,1.405,1.405,0,0,0-.091-1.432,3.807,3.807,0,0,0-1.241-1.058,11.044,11.044,0,0,0-1.639-.757c-.266-.1-.628-.227-.968-.381s-.677-.319-1-.5a11.553,11.553,0,0,1-3.447-3.027,12.933,12.933,0,0,1-2.151-4.266,11.515,11.515,0,0,1-.307-5.155,9.721,9.721,0,0,1,.952-2.8A8.492,8.492,0,0,1,653.605,571a8.907,8.907,0,0,1,3.065-1.66,11.249,11.249,0,0,1,3.234-.5l1.1-.014a4.6,4.6,0,1,1-1.96,8.739,3.123,3.123,0,0,0-1.192-.428,1.649,1.649,0,0,0-1.3.979,5.7,5.7,0,0,0-.694,2.627,7.666,7.666,0,0,0,.511,3.072,8.2,8.2,0,0,0,2.4,3.357,9.122,9.122,0,0,0,.752.566,12.745,12.745,0,0,1,1.648,1.382,5.121,5.121,0,0,1,1.267,1.916,2.588,2.588,0,0,1,.119,1.236,2.7,2.7,0,0,1-.45,1.092,5.448,5.448,0,0,1-1.57,1.4,15.669,15.669,0,0,1-1.787.945.257.257,0,0,1-.212-.467l.019-.007.011,0Z" transform="translate(-206.924 -389.391)" fill="#fff"/>
  <path id="Path_143" data-name="Path 143" d="M602.144,588.675H553.476a5.181,5.181,0,0,1-5.181-5.18v-27.74a5.18,5.18,0,0,1,5.181-5.18h48.668a5.18,5.18,0,0,1,5.18,5.18v27.74a5.181,5.181,0,0,1-5.179,5.18Z" transform="translate(-188.92 -386.173)" fill="#fafafa"/>
  <path id="Path_144" data-name="Path 144" d="M454.86,630.79a5.549,5.549,0,0,1,11.1,0" transform="translate(-172.447 -399.337)" fill="#0b4870"/>
  <path id="Path_145" data-name="Path 145" d="M402.56,573.931s3.685-1.762,5.3-2.684,5.778-2.186,6.114-2.486,12.334-1.041,13.062-1.668,1.435,1.471-1.675,2.152-7.436,2.347-7.674,3.563,3.194,1.5,3.542,2.5-.1.778-.589.991-4.081-1.773-5.66-1.208-3.991-.217-5.2.2-7.091,2.393-7.091,2.393l-.133-3.754Z" transform="translate(-163.227 -389.065)" fill="#fab9af"/>
  <path id="Path_146" data-name="Path 146" d="M409.74,577.267l1.9-.7s-2.367-5.556-3.4-5.422a25.816,25.816,0,0,0-2.675.549Z" transform="translate(-163.756 -389.799)" fill="#ead8cf"/>
  <path id="Path_147" data-name="Path 147" d="M408.563,578.148c-.243-.181-4.035-7.457-4.035-7.457l-8.1,1.1,4.379,8.618,7.759-2.26Z" transform="translate(-162.145 -389.72)" fill="#cce9ff"/>
  <path id="Path_148" data-name="Path 148" d="M427.194,597.57s4.147.376,6.046.413,6.2,1.1,6.654,1.007,11.352,5.521,12.318,5.347.491,2.04-2.59,1.015-7.74-1.821-8.582-.88,2.016,2.983,1.8,4.04-.488.632-1.031.563-2.653-3.682-4.33-4.01-3.385-2.271-4.659-2.538-7.463-1.6-7.463-1.6l1.839-3.357Zm-51.673-88.457s9.29-3.47,13.575,3.6,3.871,21.227-.813,22.97-11.717.83-14.114-3.595-4.562-10.821-4.458-15.1,3.371-6.647,5.81-7.881Z" transform="translate(-157.435 -378.713)" fill="#fab9af"/>
  <path id="Path_149" data-name="Path 149" d="M387.841,540.06s-.75,6.668-.111,7.906-11.6,0-11.6,0-1.1-9.613-3.055-15.294S387.841,540.06,387.841,540.06Z" transform="translate(-158.001 -382.765)" fill="#fab9af"/>
  <path id="Path_150" data-name="Path 150" d="M372.346,528.39s.45,7.157,4.021,6.6,8.351-11.024,9.842-11.544,1.5-1.4,1.5-1.4l.933,1.364,1.583.1s-1.444-4.25.735-5.984-2.262-13.757-13.713-9.753c0,0-8.8,2.425-8.477,7.426s1.6,10.7,3.57,13.192Z" transform="translate(-157.269 -378.484)" fill="#0b4870"/>
  <path id="Path_151" data-name="Path 151" d="M389.615,552.608s-.04-2.359-1.11-2.588-11.813-1.258-13.126-.741v2.751S377.91,553.586,389.615,552.608Z" transform="translate(-158.435 -385.92)" fill="#e2d2ca"/>
  <path id="Path_152" data-name="Path 152" d="M390.769,522.676c-.2-.84-2.334-3.237-3.151-.669s1.235,6.02,2.379,5.723S391.277,524.8,390.769,522.676Z" transform="translate(-160.559 -380.933)" fill="#eea886"/>
  <path id="Path_153" data-name="Path 153" d="M400.355,660.467s1.461,10.43.845,12.28-6.166,10.482-6.166,10.482l-6.166,26.515h-7.4l-.617-30.831-3.083,29.6-6.166-.617-7.4-28.981s-13.049-.7-10.533-20.7,46.685,2.254,46.685,2.254Z" transform="translate(-154.55 -403.68)" fill="#0b4870"/>
  <path id="Path_154" data-name="Path 154" d="M353.21,641.387a98.2,98.2,0,0,0,15.413,2.749c9.716,1.071,33.99-.385,34.143-1.533s-5.221-42.742-4.915-44.884.47-9.774.47-9.774a53.762,53.762,0,0,0,4.823,15.289c.928,1.682,3.647,5.468,5.548,5.755,10.6,1.6,21.6,2.4,22.319,2.219-.6-.261.665-6.562,0-6.783-.582-.2-8.016-1.233-13.565-2.466-2.039-.453-6.937-12.048-6.937-12.048-.918-2.066-4.262-15.077-5.3-19.58-2.344-10.155-1.983-10.577-1.983-10.577-7.107-2.15-17.9-6.527-17.9-6.527l-14.236-.578s-13.065,2.876-18.21,5.2c-.488.221-.49,11.656-1.829,14.654l4.266,9s2.464,17.827,2.975,25.756c.234,3.64-5.083,34.13-5.083,34.13Z" transform="translate(-154.146 -386.539)" fill="#75297f"/>
  <path id="Path_155" data-name="Path 155" d="M350.092,588.462c.371,1.2,2.06,2.212,3.156,2.656a4.088,4.088,0,0,0,2.28.229l.558-.1v0l9.756-1.81s2.134-24.583-13.327-30.473c-.409.134-5.836,18.495-2.422,29.5Z" transform="translate(-153.779 -387.652)" fill="#75297f"/>
  <path id="Path_156" data-name="Path 156" d="M372.429,510.307s-11.69,1.185-.208,18.933Zm17.642,177.3s2.466,0,3.083,1.233a6.14,6.14,0,0,1,.617,2.466H383.288l.617-3.7h6.165Z" transform="translate(-156.987 -379.074)" fill="#0b4870"/>
  <path id="Path_157" data-name="Path 157" d="M478.7,571.01a5.738,5.738,0,0,1-1.659.568q-2.947.8-5.9,1.578c-.189.05-.182.092-.078.231q3.178,4.27,6.348,8.547a2.969,2.969,0,0,1,.187.273.484.484,0,0,1-.189.778,4.265,4.265,0,0,1-.757.357c-3.352,1.256-6.723,2.46-10.094,3.665q-3.353,1.2-6.716,2.371a8.486,8.486,0,0,1-1.32.351,1.4,1.4,0,0,1-1.3-.395,6,6,0,0,1-.923-1.289c-1.834-3.112-3.556-6.289-5.32-9.44-.19-.339-.189-.339-.564-.242q-5.356,1.392-10.713,2.785a2.753,2.753,0,0,1-1.289.055,2,2,0,0,1-1.458-1.173q-5.434-11.791-10.86-23.584a8.848,8.848,0,0,1-.436-1.171v-.4a.849.849,0,0,1,.871-.667c1.216-.094,2.433-.176,3.649-.271q3.022-.237,6.043-.487a1.327,1.327,0,0,0,.531-.077h1.282a1.969,1.969,0,0,1,1.079,1.067q2.27,3.8,4.531,7.6,4.02,6.751,8.037,13.5a.259.259,0,0,0,.345.142q5.188-1.25,10.378-2.491l5.275-1.262c.063-.015.125-.035.189-.054a.55.55,0,0,0-.133-.236q-2.525-3.609-5.053-7.217c-.437-.624-.317-.958.44-1.1.831-.156,1.67-.269,2.5-.407,1.553-.255,3.1-.516,4.657-.772.246-.04.5-.074.742-.108a1.265,1.265,0,0,1,1.03.353,10.76,10.76,0,0,1,1.265,1.471c1.707,2.115,3.382,4.253,5.115,6.346a1.011,1.011,0,0,0,.259.264c0,.177,0,.354,0,.531Zm-39.352,7.763c.089-.018.183-.034.276-.056q1.222-.294,2.443-.591l7.16-1.727c.342-.082.389-.2.2-.5q-.065-.1-.126-.208-5.95-10.276-11.894-20.556a.432.432,0,0,0-.481-.245c-.454.046-.909.076-1.364.115l-3.255.283c-1.276.111-2.551.227-3.827.334-.329.028-.388.1-.278.411a1.758,1.758,0,0,0,.091.2c.18.362.366.722.543,1.086q5.108,10.506,10.214,21.013a.9.9,0,0,1,.13.325c.007.1.083.105.165.11Zm19.363,8.234c.054-.015.133-.032.21-.058q5.884-2,11.767-4.011c1.321-.451,2.641-.908,3.96-1.362.234-.081.257-.139.138-.352a3.027,3.027,0,0,0-.181-.277q-1.936-2.66-3.872-5.32c-.45-.619-.888-1.247-1.331-1.871-.125-.175-.254-.311-.51-.241q-1.936.524-3.878,1.028-5.928,1.551-11.859,3.095c-.163.042-.209.077-.108.25q2.356,4.016,4.7,8.039a5.369,5.369,0,0,0,.567.867A.534.534,0,0,0,458.714,587.007ZM471.1,563.5c-.125.026-.268.058-.413.083l-5.469.986c-.579.1-.6.153-.252.624q2.261,3.078,4.521,6.156a.244.244,0,0,0,.306.115q2.36-.6,4.725-1.185c.47-.117.946-.217,1.416-.334.334-.083.36-.177.152-.44q-1.106-1.391-2.207-2.787-1.156-1.464-2.309-2.931A.634.634,0,0,0,471.1,563.5Z" transform="translate(-167.3 -386.667)" fill="#f298ff"/>
  <path id="Path_158" data-name="Path 158" d="M764.386,749.776H121.866a9.866,9.866,0,0,1,0-19.733h642.52a9.866,9.866,0,1,1,0,19.733Z" transform="translate(-112 -417.814)" fill="#d3d3d3"/>
  <path id="Path_159" data-name="Path 159" d="M385.24,626.737h51.18v4.933H385.24Z" transform="translate(-160.173 -399.601)" fill="#0b4870"/>
  <path id="Path_160" data-name="Path 160" d="M383.834,649.5H368.306c-10.839,0-19.625-9.478-19.625-21.171l4.908-42.416c1.687-11.306,12.151-18.566,22.767-18.566,10.733,0,21.26,7.44,22.814,18.895l4.289,42.087C403.459,640.018,394.673,649.5,383.834,649.5Z" transform="translate(-153.728 -389.13)" fill="#ffbe55"/>
  <path id="Path_161" data-name="Path 161" d="M383.689,708.9h-5.375a2.219,2.219,0,0,1-2.219-2.219V612.334a2.22,2.22,0,0,1,2.219-2.22h5.375a2.219,2.219,0,0,1,2.219,2.22v94.347A2.22,2.22,0,0,1,383.689,708.9Z" transform="translate(-158.561 -396.67)" fill="#75297f"/>
  <path id="Path_162" data-name="Path 162" d="M384.381,614.241h-8.974a4.3,4.3,0,0,1-4.3-4.3v-1.9a4.3,4.3,0,0,1,4.3-4.3h8.974a4.3,4.3,0,0,1,4.3,4.3v1.9A4.3,4.3,0,0,1,384.381,614.241Z" transform="translate(-157.681 -395.547)" fill="#75297f"/>
  <path id="Path_163" data-name="Path 163" d="M398.707,689.844H354.961a3.408,3.408,0,0,1-3.408-3.408V680.3a3.408,3.408,0,0,1,3.408-3.408h43.746a3.408,3.408,0,0,1,3.408,3.408v6.132a3.408,3.408,0,0,1-3.409,3.408Z" transform="translate(-154.234 -408.444)" fill="#ffbe55"/>
  <circle id="Ellipse_1" data-name="Ellipse 1" cx="6.387" cy="6.387" r="6.387" transform="translate(331.22 52.537)" fill="#ffbe55" opacity="0.29"/>
  <path id="Path_164" data-name="Path 164" d="M516.823,393.905a23.571,23.571,0,0,0-23.571,23.571h47.142A23.571,23.571,0,0,0,516.823,393.905Z" transform="translate(-179.216 -358.552)" fill="#ffbe55"/>
  <path id="Path_165" data-name="Path 165" d="M520.657,350.985h1.995v35.353h-1.995Z" transform="translate(-184.048 -350.985)"/>
  <path id="Path_166" data-name="Path 166" d="M595.6,558.767c-.6.871-1.09,1.811-1.62,2.726q-6.949,11.971-13.883,23.951c-.221.381-.22.381-.441,0q-7.639-13.183-15.28-26.364c-.063-.11-.1-.243-.223-.313v-.078l6.3.014c.26.454.518.909.78,1.361l4.407,7.6q2.036,3.513,4.067,7.028c.129.223.216.223.343,0,.479-.84.968-1.675,1.453-2.513q2.381-4.107,4.76-8.213,1.523-2.63,3.041-5.265l6.3-.014c0,.027,0,.053,0,.079Z" transform="translate(-191.717 -387.604)" fill="#f298ff"/>
  <path id="Path_167" data-name="Path 167" d="M571.8,558.7c1.859,0,3.717,0,5.576-.02.239,0,.309.135.4.3q1.6,2.765,3.2,5.526c.069.118.144.234.221.358a.82.82,0,0,0,.265-.361c1.063-1.829,2.129-3.656,3.181-5.492a.539.539,0,0,1,.544-.328c1.82.019,3.639.016,5.459.021q-1.521,2.633-3.041,5.265-2.378,4.108-4.76,8.213c-.485.837-.974,1.673-1.453,2.513-.128.223-.214.223-.343,0q-2.03-3.516-4.067-7.028-2.2-3.8-4.407-7.6c-.264-.454-.522-.909-.782-1.362Z" transform="translate(-193.065 -387.602)" fill="#690b70"/>
  <path id="Path_168" data-name="Path 168" d="M393.522,722.559l-.355,2.466h-4.932v-2.466Z" transform="translate(-160.701 -416.495)" fill="#fab9af"/>
  <path id="Path_169" data-name="Path 169" d="M773.264,716.281a4.039,4.039,0,0,1-4.039,4.039H753.642a4.039,4.039,0,0,1-4.039-4.039V679.923a4.039,4.039,0,0,1,4.039-4.039h15.582a4.039,4.039,0,0,1,4.039,4.039Z" transform="translate(-224.412 -408.266)" fill="#ffbe55"/>
  <path id="Path_170" data-name="Path 170" d="M764.848,615.222s-12.756,25.929,6.039,30.345,19.336-15.143,17.411-23.2,27.9-29.731,3.3-48.9-43.767,31.87-26.75,41.761Z" transform="translate(-225.957 -389.456)" fill="#f298ff"/>
  <path id="Path_171" data-name="Path 171" d="M735.491,635.872s-.6,17.063,10.6,14.895,6.758-12.841,3.769-16.72S757.7,611.271,739.8,606.89,723.925,634.659,735.491,635.872Z" transform="translate(-220.353 -396.03)" fill="#f298ff"/>
  <path id="Path_172" data-name="Path 172" d="M739.387,617.324l13.85,43.86m-5.771-34.929-2.934,7.365-6.685-3.683m38.4-37.429L764.37,661.184M783.222,602.9l-9.843,6.217-6.315-8.525M780.53,617.3l-9.844,6.216-6.315-8.525" transform="translate(-222.339 -393.566)" fill="none" stroke="#4d4d4d" stroke-miterlimit="10" stroke-width="1"/>
  <path id="Path_173" data-name="Path 173" d="M279.935,716.281a4.039,4.039,0,0,1-4.039,4.039H260.313a4.039,4.039,0,0,1-4.039-4.039V679.923a4.039,4.039,0,0,1,4.039-4.039H275.9a4.039,4.039,0,0,1,4.039,4.039Z" transform="translate(-137.436 -408.266)" fill="#ffbe55"/>
  <path id="Path_174" data-name="Path 174" d="M271.518,615.222s-12.756,25.929,6.039,30.345,19.336-15.143,17.41-23.2,27.9-29.731,3.3-48.9-43.767,31.87-26.75,41.761Z" transform="translate(-138.981 -389.456)" fill="#f298ff"/>
  <path id="Path_175" data-name="Path 175" d="M242.161,635.872s-.6,17.063,10.6,14.895,6.758-12.841,3.769-16.72,7.842-22.776-10.056-27.156-15.878,27.768-4.312,28.982Z" transform="translate(-133.377 -396.03)" fill="#f298ff"/>
  <path id="Path_176" data-name="Path 176" d="M246.058,617.324l13.85,43.86m-5.771-34.929L251.2,633.62l-6.685-3.683m38.4-37.429L271.04,661.184M289.893,602.9l-9.844,6.217-6.315-8.525M287.2,617.3l-9.843,6.216-6.316-8.525" transform="translate(-135.364 -393.566)" fill="none" stroke="#4d4d4d" stroke-miterlimit="10" stroke-width="1"/>
</svg>
