<svg xmlns="http://www.w3.org/2000/svg" width="640" height="640" viewBox="0 0 640 640">
  <g id="Layer_2" data-name="Layer 2" transform="translate(0 -0.081)">
    <g id="Layer_1" data-name="Layer 1" transform="translate(0 0)">
      <rect id="Rectangle_2" data-name="Rectangle 2" width="640" height="640" transform="translate(0 0.081)" fill="none"/>
      <path id="Path_221" data-name="Path 221" d="M2287.935,1908.032c3.207-14.367,17.636-5.569,26.055-1.929,6.378,2.582,13.813-.369,14.9-7.484,1.212-6.771.3-14.093,3.511-20.407,6.46-14.827,26.911-10.336,26.629,5.736-3.9,15.835,11.7,17.943,13.56,7.127.66-13.169,15.984-17.711,23.137-6.579,6.381,9.412,3.675,27.06-8.188,30.112-3.4.777-6.938.037-10.425-.026-18.715,1-5.348,14.425-8.643,23.972-1.705,3.656-6.423,5.087-10.368,4.249-8.868-1.13-16.559-17.107-25.74-9.02-2.125,2.666-1.291,6.524-1.8,9.9-.954,6.343-7,10.948-13.272,12.272-12.681,2.654-25.422-5.07-38.115-2.719-6.066,1.13-12.493,4.5-18.005,1.729-9.254-4.161-8.252-27.563-3.014-34.368,3.566-4.638,9.641-6.407,15.3-7.905C2278.682,1911.3,2282.709,1909.417,2287.935,1908.032Z" transform="translate(-1773.158 -1470.498)" fill="#370c46" stroke="#1a1a1a" stroke-linecap="round" stroke-linejoin="round" stroke-width="1.822"/>
      <path id="Path_222" data-name="Path 222" d="M2122.825,1716.18c4.826,1.029,9.7,2.063,14.636,1.983s10-1.377,13.79-4.539,6.031-8.413,4.776-13.185c-1.228-4.669-5.533-8.663-4.786-13.432.776-4.96,6.619-7.4,11.638-7.492s10.193,1.176,14.974-.357a13.273,13.273,0,0,0,3.634-23.463c-2.156-1.531-4.713-2.383-7.007-3.7s-4.447-3.326-4.832-5.942c-.685-4.659,4.168-7.965,6.928-11.781,4.119-5.7,3.451-14.179-1.1-19.535s-12.4-7.435-19.182-5.595a23.008,23.008,0,0,0-14.911,13.823c-1.959,4.99-2.294,10.477-3.994,15.561a31.12,31.12,0,0,1-29.4,20.66c-5.435-.125-11.2-1.652-16.1.721-6.185,3-8.164,11.184-6.69,17.9a26.444,26.444,0,0,0,11.588,16.5c4.564,2.876,7.323,7.822,12.185,10.16,3.759,1.808,7.942,3.043,10.918,5.965A11.753,11.753,0,0,1,2122.825,1716.18Z" transform="translate(-1639.814 -1265.367)" fill="#fff" stroke="#1a1a1a" stroke-linecap="round" stroke-linejoin="round" stroke-width="3.644"/>
      <path id="Path_223" data-name="Path 223" d="M2389.488,1841.6s-10.244,6.35-19.35,3.455" transform="translate(-1864.385 -1448.797)" fill="#fff" stroke="#1a1a1a" stroke-linecap="round" stroke-linejoin="round" stroke-width="3.644"/>
      <path id="Path_224" data-name="Path 224" d="M2307.91,2073.161s60.356-9.591,88.278-32.824" transform="translate(-1815.419 -1605.178)" fill="none" stroke="#fff" stroke-linecap="round" stroke-linejoin="round" stroke-width="5.466"/>
      <path id="Path_225" data-name="Path 225" d="M2672.513,1980.41s2.57,13.991-5.213,20.777" transform="translate(-2098.215 -1558.023)" fill="none" stroke="#fff" stroke-linecap="round" stroke-linejoin="round" stroke-width="5.466"/>
      <path id="Path_226" data-name="Path 226" d="M2644.192,2103.421s-5.889,3.719-21.562-2.31" transform="translate(-2063.065 -1653)" fill="none" stroke="#fff" stroke-linecap="round" stroke-linejoin="round" stroke-width="5.466"/>
      <path id="Path_227" data-name="Path 227" d="M2521.515,2086.29s.9,8.843-4.844,12.01" transform="translate(-1979.688 -1641.338)" fill="none" stroke="#fff" stroke-linecap="round" stroke-linejoin="round" stroke-width="5.466"/>
      <path id="Path_228" data-name="Path 228" d="M2469.221,2169.294s-13.24-1.585-13.859-8.122" transform="translate(-1931.446 -1700.261)" fill="none" stroke="#fff" stroke-linecap="round" stroke-linejoin="round" stroke-width="5.466"/>
      <path id="Path_229" data-name="Path 229" d="M2277.107,1654.48s-4.73,29.274-13.034,43.335-29.238,28.522-28.72,36.426" transform="translate(-1758.319 -1301.557)" fill="#fff" stroke="#1a1a1a" stroke-linecap="round" stroke-linejoin="round" stroke-width="3.644"/>
      <path id="Path_230" data-name="Path 230" d="M2281.674,1975.46c.042.641-5.74,8.315-20.326,1.333" transform="translate(-1778.78 -1554.128)" fill="#fff" stroke="#1a1a1a" stroke-linecap="round" stroke-linejoin="round" stroke-width="3.644"/>
      <path id="Path_231" data-name="Path 231" d="M2262.515,1873.94s-1.645,14.391,3.273,18.934" transform="translate(-1779.491 -1474.244)" fill="#fff" stroke="#1a1a1a" stroke-linecap="round" stroke-linejoin="round" stroke-width="3.644"/>
      <path id="Path_232" data-name="Path 232" d="M2428.124,1676.09a9.057,9.057,0,0,1-7.225,6.682" transform="translate(-1904.327 -1318.561)" fill="#fff" stroke="#1a1a1a" stroke-linecap="round" stroke-linejoin="round" stroke-width="3.644"/>
      <ellipse id="Ellipse_5" data-name="Ellipse 5" cx="97.154" cy="25.188" rx="97.154" ry="25.188" transform="translate(57.128 501.288)" fill="#fff" stroke="#1a1a1a" stroke-linecap="round" stroke-linejoin="round" stroke-width="3.644"/>
      <path id="Path_233" data-name="Path 233" d="M93.438,1722.161H557.48c.794-1.145,9.164-13.657,3.946-27.331-4.623-12.116-17.941-19.97-32.446-18.416,3.838-26-2.268-52.023-18.854-63.578-24.5-17.07-75.195-4.88-102.162,43.846,2.631-32.008-18.415-57-46.039-69.277-36.977-13.154-56.653,15.874-65.331,23.677-10.727-11.8-27.8-26.551-52.177-34.639-28.133-9.335-77.9-13.749-96.9,14.031-6.742,9.859-7.884,21.25-7.454,30.254-26.665-8.6-55.555,3.286-67.962,27.185C58.811,1673.513,67.814,1706.381,93.438,1722.161Z" transform="translate(-51.313 -1234.53)" fill="#fff" stroke="#1a1a1a" stroke-linecap="round" stroke-linejoin="round" stroke-width="3.644"/>
      <rect id="Rectangle_3" data-name="Rectangle 3" width="31.569" height="65.77" transform="translate(285.912 309.615)" fill="#fff" stroke="#1a1a1a" stroke-linecap="round" stroke-linejoin="round" stroke-width="3.644"/>
      <path id="Path_234" data-name="Path 234" d="M932.632,1729.69H892.646L777.2,1782.014h34.544l100.894-34.2,100.893,34.2h34.543Z" transform="translate(-610.941 -1360.738)" fill="#370c46" stroke="#1a1a1a" stroke-linecap="round" stroke-linejoin="round" stroke-width="1.822"/>
      <rect id="Rectangle_4" data-name="Rectangle 4" width="373.572" height="59.528" transform="translate(99.126 421.276)" fill="#fff" stroke="#1a1a1a" stroke-linecap="round" stroke-linejoin="round" stroke-width="3.644"/>
      <line id="Line_3" data-name="Line 3" y2="45.672" transform="translate(398.552 428.491)" fill="#fff" stroke="#1a1a1a" stroke-linecap="round" stroke-linejoin="round" stroke-width="3.644"/>
      <rect id="Rectangle_5" data-name="Rectangle 5" width="373.572" height="6.826" transform="translate(99.126 480.806)" fill="#1c0311" stroke="#1a1a1a" stroke-linecap="round" stroke-linejoin="round" stroke-width="1.822"/>
      <line id="Line_4" data-name="Line 4" y2="45.672" transform="translate(220.436 428.491)" fill="#fff" stroke="#1a1a1a" stroke-linecap="round" stroke-linejoin="round" stroke-width="3.644"/>
      <line id="Line_5" data-name="Line 5" y2="45.672" transform="translate(157.327 428.491)" fill="#fff" stroke="#1a1a1a" stroke-linecap="round" stroke-linejoin="round" stroke-width="3.644"/>
      <line id="Line_6" data-name="Line 6" x2="508.619" transform="translate(20.802 487.63)" fill="none" stroke="#1a1a1a" stroke-linecap="round" stroke-linejoin="round" stroke-width="5.466"/>
      <rect id="Rectangle_6" data-name="Rectangle 6" width="363.05" height="223.91" rx="39.208" transform="translate(118.126 88.336)" fill="#fff" stroke="#1a1a1a" stroke-linecap="round" stroke-linejoin="round" stroke-width="3.644"/>
      <path id="Path_235" data-name="Path 235" d="M1931.894,473.074V646.081a16.078,16.078,0,0,1-16.078,16.078H1857.06V457h58.756a16.077,16.077,0,0,1,16.078,16.075Z" transform="translate(-1460.656 -359.288)" fill="#fff" stroke="#1a1a1a" stroke-linecap="round" stroke-linejoin="round" stroke-width="3.644"/>
      <rect id="Rectangle_7" data-name="Rectangle 7" width="268.338" height="94.364" transform="translate(128.066 139.545)" fill="#fff" stroke="#1a1a1a" stroke-linecap="round" stroke-linejoin="round" stroke-width="3.644"/>
      <rect id="Rectangle_8" data-name="Rectangle 8" width="250.774" height="81.377" transform="translate(136.983 145.532)" fill="none" stroke="#1a1a1a" stroke-linecap="round" stroke-linejoin="round" stroke-width="3.644" stroke-dasharray="21.862"/>
      <path id="Path_236" data-name="Path 236" d="M866.329,457v41.833H597.992V473.074A16.074,16.074,0,0,1,614.066,457Z" transform="translate(-469.926 -359.288)" fill="#fff" stroke="#1a1a1a" stroke-linecap="round" stroke-linejoin="round" stroke-width="3.644"/>
      <path id="Path_237" data-name="Path 237" d="M866.329,1096.05v68.963H614.066a16.074,16.074,0,0,1-16.074-16.077V1096.05Z" transform="translate(-469.926 -862.141)" fill="#fff" stroke="#1a1a1a" stroke-linecap="round" stroke-linejoin="round" stroke-width="3.644"/>
      <circle id="Ellipse_6" data-name="Ellipse 6" cx="13.446" cy="13.446" r="13.446" transform="translate(421.544 156.736)" fill="#fff" stroke="#1a1a1a" stroke-linecap="round" stroke-linejoin="round" stroke-width="3.644"/>
      <circle id="Ellipse_7" data-name="Ellipse 7" cx="13.446" cy="13.446" r="13.446" transform="translate(328.281 177.611)" fill="#fff" stroke="#1a1a1a" stroke-linecap="round" stroke-linejoin="round" stroke-width="3.644"/>
      <circle id="Ellipse_8" data-name="Ellipse 8" cx="13.446" cy="13.446" r="13.446" transform="translate(276.342 106.158)" fill="#fff" stroke="#1a1a1a" stroke-linecap="round" stroke-linejoin="round" stroke-width="3.644"/>
      <circle id="Ellipse_9" data-name="Ellipse 9" cx="13.446" cy="13.446" r="13.446" transform="translate(313.113 256.826)" fill="#fff" stroke="#1a1a1a" stroke-linecap="round" stroke-linejoin="round" stroke-width="3.644"/>
      <path id="Path_238" data-name="Path 238" d="M1342.79,546.912v-.778l.993-.964c2.39-2.275,3.47-3.484,3.484-4.9a1.67,1.67,0,0,0-1.857-1.828,3.188,3.188,0,0,0-1.987.792l-.4-.893a4.107,4.107,0,0,1,2.649-.95,2.633,2.633,0,0,1,2.865,2.721c0,1.728-1.252,3.124-3.225,5.025l-.749.691v.029h4.2v1.051Z" transform="translate(-1055.989 -422.55)"/>
      <path id="Path_239" data-name="Path 239" d="M1587.135,880.352a4.233,4.233,0,0,0,2.073.59c1.627,0,2.131-1.037,2.116-1.814-.014-1.31-1.2-1.872-2.419-1.872h-.705v-.95h.705c.921,0,2.088-.475,2.088-1.584,0-.749-.475-1.411-1.642-1.411a3.437,3.437,0,0,0-1.872.619l-.331-.921a4.449,4.449,0,0,1,2.448-.72c1.843,0,2.678,1.094,2.678,2.232a2.324,2.324,0,0,1-1.728,2.2v.029a2.438,2.438,0,0,1,2.087,2.4c0,1.5-1.166,2.807-3.412,2.807a4.755,4.755,0,0,1-2.433-.633Z" transform="translate(-1247.987 -686.07)"/>
      <path id="Path_240" data-name="Path 240" d="M2032.683,776.267h-.029l-1.627.878-.245-.965,2.044-1.094h1.08v9.358h-1.224Z" transform="translate(-1597.354 -609.583)"/>
      <path id="Path_241" data-name="Path 241" d="M1517.618,1254.07v-2.548h-4.348v-.835l4.175-5.975h1.368v5.816h1.31v.993h-1.31v2.548Zm0-3.542V1247.4q0-.734.043-1.469h-.043c-.288.547-.518.95-.777,1.382l-2.289,3.182v.029Z" transform="translate(-1190.136 -979.12)"/>
      <rect id="Rectangle_9" data-name="Rectangle 9" width="250.774" height="52.17" transform="translate(136.983 242.579)" fill="none" stroke="#1a1a1a" stroke-linecap="round" stroke-linejoin="round" stroke-width="3.644" stroke-dasharray="21.862"/>
      <path id="Path_242" data-name="Path 242" d="M997.432,857.837s-2.858-1.171,2.241-3.7,10.815,6.041,10.621,9.062-8.867,8.087-8.867,8.087Z" transform="translate(-783.608 -671.421)" fill="#54cafa" stroke="#1a1a1a" stroke-linecap="round" stroke-linejoin="round" stroke-width="3.644"/>
      <path id="Path_243" data-name="Path 243" d="M1022.376,788.036s-4.774-4.189-7.5,2.339-6.455,14.689-6.455,14.689,4.236,6.655,6.965,6.07C1028.15,805.458,1022.376,788.036,1022.376,788.036Z" transform="translate(-792.88 -618.732)" fill="#fff" stroke="#1a1a1a" stroke-linecap="round" stroke-linejoin="round" stroke-width="3.644"/>
      <path id="Path_244" data-name="Path 244" d="M1057.041,671.773l68,5.846-8.77,50.472-65.672-9.549Z" transform="translate(-826.072 -528.288)" fill="#fff" stroke="#1a1a1a" stroke-linecap="round" stroke-linejoin="round" stroke-width="3.644"/>
      <path id="Path_245" data-name="Path 245" d="M1237.432,755.711l17.421-9.646,1.364,1.9-19.244,10.377A2.631,2.631,0,0,1,1237.432,755.711Z" transform="translate(-972.594 -586.746)" fill="#fff" stroke="#1a1a1a" stroke-linecap="round" stroke-linejoin="round" stroke-width="3.644"/>
      <path id="Path_246" data-name="Path 246" d="M654.587,840.931s-44.723,43.554-34.639,64.893c6.431,12.131,25.869-.731,25.869-.731Z" transform="translate(-486.037 -661.394)" fill="#6800ac" stroke="#1a1a1a" stroke-linecap="round" stroke-linejoin="round" stroke-width="3.644"/>
      <path id="Path_247" data-name="Path 247" d="M803.09,2378.239l.642-3.158s-16.077-2-18.123-1c0,0-.817,1.7-1.809,4.217C789.65,2380.268,796.754,2379.617,803.09,2378.239Z" transform="translate(-616.134 -1867.571)" fill="#1c0311" stroke="#1a1a1a" stroke-linecap="round" stroke-linejoin="round" stroke-width="1.822"/>
      <path id="Path_248" data-name="Path 248" d="M803.56,2397.9c-5.944-.487-13.836-.682-13.836-.682l.527-2.591c-6.335,1.378-13.44,2.028-19.29.058-2.584,6.565-6.352,18.722.055,21.045,8.867,3.215,31.277-3.605,38.487-8.769C811.842,2404.72,809.5,2398.386,803.56,2397.9Z" transform="translate(-603.295 -1883.959)" fill="#fff" stroke="#1a1a1a" stroke-linecap="round" stroke-linejoin="round" stroke-width="3.644"/>
      <path id="Path_249" data-name="Path 249" d="M468.722,2347.548l1.093-4.913s-13.377-4.689-15.633-4.376a65.575,65.575,0,0,0-4.444,5.891C455.18,2348.48,462.043,2348.891,468.722,2347.548Z" transform="translate(-353.268 -1839.595)" fill="#1c0311" stroke="#1a1a1a" stroke-linecap="round" stroke-linejoin="round" stroke-width="1.822"/>
      <path id="Path_250" data-name="Path 250" d="M461.8,2376.726c-5.5-2.316-12.933-4.963-12.933-4.963l.537-2.412c-6.679,1.343-13.542.932-18.984-3.4-3.733,5.572-7.781,13.6-3.174,17.216,7.422,5.82,28.914,6.678,37.375,4.021C467.543,2385.79,467.3,2379.043,461.8,2376.726Z" transform="translate(-333.952 -1861.398)" fill="#fff" stroke="#1a1a1a" stroke-linecap="round" stroke-linejoin="round" stroke-width="3.644"/>
      <path id="Path_251" data-name="Path 251" d="M586.123,1311.252s-61.385-4.969-72.347,3.069-29.669,50.716-19.439,111.516c-20.169,34.2-36.246,104.939-36.246,104.939s12.959,7.5,18.416,5.749c7.892-11.693,45.016-75.611,60.8-142.55,12.862-41.508,21.339-60.508,21.339-60.508" transform="translate(-359.841 -1030.284)" fill="#06000a" stroke="#1a1a1a" stroke-linecap="round" stroke-linejoin="round" stroke-width="3.644"/>
      <path id="Path_252" data-name="Path 252" d="M800.245,1295.6c.585,0,44.308,3.636,45.319,5.911s2.181,63.513-5.711,101.806-37.513,125.3-37.513,125.3-22.021,2.533-25.139-1.948c.779-12.667,15.4-94.514,22.8-106.6-2.533-13.056-19.787-53.332-11.891-82.555" transform="translate(-610.941 -1019.162)" fill="#06000a" stroke="#1a1a1a" stroke-linecap="round" stroke-linejoin="round" stroke-width="3.644"/>
      <path id="Path_253" data-name="Path 253" d="M713.1,1317.513s6.689,3.967,23.435,4.244,38.2-4.06,45.671-4.244a41.266,41.266,0,0,0,12.04-1.854v-5.932l-81.145,2.619-1.553,3.4Z" transform="translate(-559.282 -1030.279)" fill="#1c0311" stroke="#1a1a1a" stroke-linecap="round" stroke-linejoin="round" stroke-width="1.822"/>
      <path id="Path_254" data-name="Path 254" d="M723.482,814.327s-12.423-3.508-24.846,18.708-8.769,85.939-2.046,90.908,33.177,6.138,42.97,4.238,28.5-2.192,34.493-3.508,7.6-15.492,6.869-28.354-.635-62.157-31.569-77.9C733.567,811.112,723.482,814.327,723.482,814.327Z" transform="translate(-542.655 -639.906)" fill="#6800ac" stroke="#1a1a1a" stroke-linecap="round" stroke-linejoin="round" stroke-width="3.644"/>
      <path id="Path_255" data-name="Path 255" d="M890.811,866.259s8.426,57.094,51.739,45.6c37.27-9.89,28.305-66.013,28.305-66.013s-.1-.974-2.826-.974-10.133-2.826-10.133,1.462-1.942,29.165-13.057,31.755-16.248-13.183-18.1-16.008" transform="translate(-700.338 -663.776)" fill="#6800ac" stroke="#1a1a1a" stroke-linecap="round" stroke-linejoin="round" stroke-width="3.644"/>
      <path id="Path_256" data-name="Path 256" d="M1209.845,784.581s6.918-9.4,5.457-12.569-8.477-6.48-10.231-6.821-7.016,3.654-7.454,4.969.487,5.651,1.267,6.674,2.387,6.285,2.387,6.821S1209.845,784.581,1209.845,784.581Z" transform="translate(-941.667 -601.78)" fill="#fff" stroke="#1a1a1a" stroke-linecap="round" stroke-linejoin="round" stroke-width="3.644"/>
      <path id="Path_257" data-name="Path 257" d="M1224.577,787.44s-3.167,3.167-1.218,5.262-1.315,3.556-1.315,3.556" transform="translate(-960.977 -619.303)" fill="#fff" stroke="#1a1a1a" stroke-linecap="round" stroke-linejoin="round" stroke-width="3.644"/>
      <path id="Path_258" data-name="Path 258" d="M1176.92,807.115l-3.938,2.14-2.142,1.8h3.118l3.945-1.218Z" transform="translate(-920.686 -634.785)" fill="#fff" stroke="#1a1a1a" stroke-linecap="round" stroke-linejoin="round" stroke-width="3.644"/>
      <path id="Path_259" data-name="Path 259" d="M780.784,637.483s6.382.828,10.377-1.51c8.282-6.626-7.941-33.177-7.941-33.177s-27.964,14.323-27.964,14.616,5.944,18.708,6.333,18.805,5.359,1.851,5.359,1.851,1.169,7.308-.292,12.277c2.826,3.508,15.492,4.774,22.313.487,1.949-1.364.633-2.546.633-2.546s-3.074-8.576-3.412-10.817" transform="translate(-593.673 -474.011)" fill="#fff" stroke="#1a1a1a" stroke-linecap="round" stroke-linejoin="round" stroke-width="3.644"/>
      <path id="Path_260" data-name="Path 260" d="M879.042,767.453s-5.213-.242-6.25-1.453c6.055.208,5.882.173,5.882.173Z" transform="translate(-686.159 -602.433)" fill="#1c0311" stroke="#1a1a1a" stroke-linecap="round" stroke-linejoin="round" stroke-width="1.822"/>
      <path id="Path_261" data-name="Path 261" d="M737.293,568.2s-9.159-8.38-10.231.877,6.333,6.333,8.964,6.138c0,0,1.364,4.482,0,7.5s-9.841,9.549-13.641,6.139-10.815-17.088-10.231-24.134,3.508-12.892,8.38-15.62,22.8-6.82,24.457-12.764c.779-3.215,4.677-.974,6.528,3.118s5.164,5.554,2.144,8.574-15.3,7.21-16.759,7.6c.292,6.821,4.482,12.667,3.8,12.862S738.17,569.859,737.293,568.2Z" transform="translate(-559.73 -420.515)" stroke="#1a1a1a" stroke-linecap="round" stroke-linejoin="round" stroke-width="1.822"/>
      <path id="Path_262" data-name="Path 262" d="M1050.6,816.365s4.78-.026,4.29,3.7-4.29,4.8-4.29,4.8" transform="translate(-826.072 -642.064)" fill="#fff" stroke="#1a1a1a" stroke-linecap="round" stroke-linejoin="round" stroke-width="3.644"/>
      <path id="Path_263" data-name="Path 263" d="M106.8,1285.067c0,.333.014.659.034.985a14.991,14.991,0,1,1,11.711-14.335,13.457,13.457,0,0,0-11.746,13.349Z" transform="translate(-69.07 -988.342)" fill="#fff" stroke="#1a1a1a" stroke-linecap="round" stroke-linejoin="round" stroke-width="3.644"/>
      <path id="Path_264" data-name="Path 264" d="M201.163,1341.1a13.46,13.46,0,0,1-26.884.985,15,15,0,0,0,11.711-14.334,13.456,13.456,0,0,1,15.172,13.349Z" transform="translate(-136.516 -1044.373)" fill="#1c0311" stroke="#1a1a1a" stroke-linecap="round" stroke-linejoin="round" stroke-width="1.822"/>
      <circle id="Ellipse_10" data-name="Ellipse 10" cx="14.729" cy="14.729" r="14.729" transform="translate(420.764 217.999)" fill="#fff" stroke="#1a1a1a" stroke-linecap="round" stroke-linejoin="round" stroke-width="3.644"/>
      <path id="Path_265" data-name="Path 265" d="M2019.142,1063.468h-15.822s-.147-1.831.8-2.272,1.684-9.448,4.4-10.546c.423-.172.779-.317,1.081-.439a1.725,1.725,0,0,1-.131-.66,1.759,1.759,0,1,1,3.388.66l1.081.439c2.711,1.1,3.443,10.108,4.395,10.546S2019.142,1063.468,2019.142,1063.468Z" transform="translate(-1575.738 -824.168)" fill="#fff" stroke="#1a1a1a" stroke-linecap="round" stroke-linejoin="round" stroke-width="3.644"/>
      <path id="Path_266" data-name="Path 266" d="M2033.651,1121.35a2.532,2.532,0,0,1-5.065,0Z" transform="translate(-1595.626 -882.049)" fill="#1a1a1a" stroke="#1a1a1a" stroke-linecap="round" stroke-linejoin="round" stroke-width="3.644"/>
      <rect id="Rectangle_10" data-name="Rectangle 10" width="2.583" height="12.179" transform="translate(407.177 445.377)" fill="#fff" stroke="#1a1a1a" stroke-linecap="round" stroke-linejoin="round" stroke-width="3.644"/>
      <rect id="Rectangle_11" data-name="Rectangle 11" width="2.583" height="12.179" transform="translate(226.282 445.377)" fill="#fff" stroke="#1a1a1a" stroke-linecap="round" stroke-linejoin="round" stroke-width="3.644"/>
      <rect id="Rectangle_12" data-name="Rectangle 12" width="2.583" height="12.179" transform="translate(160.973 445.377)" fill="#fff" stroke="#1a1a1a" stroke-linecap="round" stroke-linejoin="round" stroke-width="3.644"/>
      <rect id="Rectangle_13" data-name="Rectangle 13" width="46.501" height="11.219" transform="translate(410.57 114.846)" fill="#1c0311" stroke="#1a1a1a" stroke-linecap="round" stroke-linejoin="round" stroke-width="1.822"/>
      <rect id="Rectangle_14" data-name="Rectangle 14" width="46.501" height="11.219" transform="translate(410.57 283.528)" fill="#1c0311" stroke="#1a1a1a" stroke-linecap="round" stroke-linejoin="round" stroke-width="1.822"/>
      <rect id="Rectangle_15" data-name="Rectangle 15" width="46.501" height="11.219" transform="translate(410.57 259.982)" fill="#1c0311" stroke="#1a1a1a" stroke-linecap="round" stroke-linejoin="round" stroke-width="1.822"/>
      <path id="Path_267" data-name="Path 267" d="M2472.039,1323.207l-6.285-1.778a2.1,2.1,0,0,0-1.916.405L2458.81,1326a2.1,2.1,0,0,1-3.447-1.539l-.251-6.527a2.1,2.1,0,0,0-.977-1.7l-5.519-3.493a2.1,2.1,0,0,1,.4-3.753l6.129-2.256a2.1,2.1,0,0,0,1.312-1.454l1.617-6.328a2.1,2.1,0,0,1,3.693-.781l4.039,5.132a2.1,2.1,0,0,0,1.788.8l6.518-.418a2.1,2.1,0,0,1,1.884,3.271l-3.633,5.427a2.1,2.1,0,0,0-.207,1.948l2.411,6.07a2.1,2.1,0,0,1-2.529,2.8Z" transform="translate(-1925.368 -1020.557)" fill="#fff" stroke="#1a1a1a" stroke-linecap="round" stroke-linejoin="round" stroke-width="3.644"/>
      <rect id="Rectangle_16" data-name="Rectangle 16" width="33.638" height="33.638" transform="translate(69.096 201.18)" fill="#fff" stroke="#1a1a1a" stroke-linecap="round" stroke-linejoin="round" stroke-width="3.644"/>
      <line id="Line_7" data-name="Line 7" y2="22.143" transform="translate(85.915 206.928)" fill="#fff" stroke="#1a1a1a" stroke-linecap="round" stroke-linejoin="round" stroke-width="3.644"/>
      <line id="Line_8" data-name="Line 8" x2="21.787" transform="translate(74.883 217.999)" fill="#fff" stroke="#1a1a1a" stroke-linecap="round" stroke-linejoin="round" stroke-width="3.644"/>
      <circle id="Ellipse_11" data-name="Ellipse 11" cx="21.482" cy="21.482" r="21.482" transform="translate(517.949 128.784)" fill="#fff" stroke="#1a1a1a" stroke-linecap="round" stroke-linejoin="round" stroke-width="3.644"/>
      <path id="Path_268" data-name="Path 268" d="M2495.77,649.76h-2.1v13.085h-6.738v-6.5a2.933,2.933,0,0,0-5.867,0v6.5h-6.739V649.76H2471.7l11.829-11.577Z" transform="translate(-1944.306 -501.857)" fill="#fff" stroke="#1a1a1a" stroke-linecap="round" stroke-linejoin="round" stroke-width="3.644"/>
    </g>
  </g>
</svg>
