<svg xmlns="http://www.w3.org/2000/svg" width="443.302" height="286.402" viewBox="0 0 443.302 286.402">
  <g id="Group_123" data-name="Group 123" transform="translate(0 0)">
    <path id="Path_318" data-name="Path 318" d="M666.819,323.478H310.782a12.489,12.489,0,0,0-12.474,12.474v187.81a12.414,12.414,0,0,0,3.4,8.543c.22.236.451.462.687.671a12.383,12.383,0,0,0,8.389,3.26H666.819a12.489,12.489,0,0,0,12.474-12.474,679.053,679.053,0,0,0,0-187.81A12.489,12.489,0,0,0,666.819,323.478Z" transform="translate(-242.516 -249.834)" fill="#f2f2f2"/>
    <path id="Path_319" data-name="Path 319" d="M636.819,287.478H280.782a12.489,12.489,0,0,0-12.474,12.474v187.81a12.414,12.414,0,0,0,3.4,8.543c.22.236.451.462.687.671a12.383,12.383,0,0,0,8.389,3.26H636.819a12.489,12.489,0,0,0,12.474-12.474V299.952A12.489,12.489,0,0,0,636.819,287.478Z" transform="translate(-229.009 -233.625)" fill="#fff"/>
    <path id="Path_320" data-name="Path 320" d="M647.923,477.577a1.248,1.248,0,0,1-.9-2.162l.085-.34-.034-.082a3.35,3.35,0,0,0-6.18.023c-1.011,2.434-2.3,4.873-2.615,7.447a9.912,9.912,0,0,0,.174,3.409,39.737,39.737,0,0,1-3.615-16.5,38.339,38.339,0,0,1,.238-4.279q.2-1.747.547-3.469a40.2,40.2,0,0,1,7.972-17.037,10.7,10.7,0,0,0,4.449-4.616,8.16,8.16,0,0,0,.742-2.23,10.072,10.072,0,0,1-.653-3.473c-.3-.458-.842-.686-1.172-1.133-1.64-2.223-3.9-1.835-5.078,1.186-2.519,1.271-2.544,3.38-1,5.408.983,1.29,1.118,3.036,1.981,4.417-.089.114-.181.224-.27.337a40.459,40.459,0,0,0-4.223,6.69,16.819,16.819,0,0,0-1-7.812c-.961-2.319-2.763-4.271-4.349-6.276a3.452,3.452,0,0,0-6.149,1.7c0,.03-.006.059-.01.089q.353.2.692.423a1.692,1.692,0,0,1-.682,3.08l-.034.005a16.841,16.841,0,0,0,.444,2.518c-2.035,7.87,2.359,10.737,8.632,10.866.138.071.273.142.412.21a41.294,41.294,0,0,0-2.223,10.461,39.165,39.165,0,0,0,.028,6.324l-.011-.075a10.35,10.35,0,0,0-3.533-5.976c-2.719-2.233-6.56-3.056-9.494-4.851a1.942,1.942,0,0,0-2.975,1.89l.012.078a11.367,11.367,0,0,1,1.275.614q.353.2.692.423a1.692,1.692,0,0,1-.682,3.08l-.035.005-.071.011a16.853,16.853,0,0,0,3.1,4.854c1.272,6.87,6.738,7.522,12.584,5.522h0a41.284,41.284,0,0,0,2.773,8.1h9.907c.036-.11.067-.224.1-.334a11.256,11.256,0,0,1-2.741-.163c.735-.9,1.47-1.811,2.205-2.713a.629.629,0,0,0,.046-.053c.373-.462.749-.92,1.122-1.381h0a16.488,16.488,0,0,0-.483-4.2Z" transform="translate(-386.498 -298.566)" fill="#f2f2f2"/>
    <path id="Path_321" data-name="Path 321" d="M649.294,537.252v19.962a12.489,12.489,0,0,1-12.474,12.474H280.782a12.383,12.383,0,0,1-8.389-3.26c-.236-.209-.467-.434-.687-.671a12.414,12.414,0,0,1-3.4-8.543V537.252C376.695,519.352,509.99,525.411,649.294,537.252Z" transform="translate(-229.009 -341.01)" fill="#785a82"/>
    <path id="Path_322" data-name="Path 322" d="M649.294,579.536V599.5a12.489,12.489,0,0,1-12.474,12.474H280.782a12.383,12.383,0,0,1-8.389-3.26c-.236-.209-.467-.434-.687-.671a12.414,12.414,0,0,1-3.4-8.543V579.536C368.073,566.186,503.836,570.484,649.294,579.536Z" transform="translate(-229.009 -361.304)" fill="#fff"/>
    <path id="Path_323" data-name="Path 323" d="M649.294,609.382v19.962a12.489,12.489,0,0,1-12.474,12.474H280.782a12.383,12.383,0,0,1-8.389-3.26c-.236-.209-.467-.434-.687-.671a12.414,12.414,0,0,1-3.4-8.543V609.382C376.254,598.172,507.77,600.832,649.294,609.382Z" transform="translate(-229.009 -375.207)" fill="#785a82"/>
    <path id="Path_324" data-name="Path 324" d="M882.923,472.577a1.248,1.248,0,0,1-.9-2.162l.085-.34-.034-.082a3.35,3.35,0,0,0-6.18.023c-1.011,2.434-2.3,4.873-2.615,7.447a9.914,9.914,0,0,0,.174,3.409,39.738,39.738,0,0,1-3.615-16.5,38.369,38.369,0,0,1,.238-4.279q.2-1.747.547-3.469a40.2,40.2,0,0,1,7.972-17.037,10.7,10.7,0,0,0,4.449-4.616,8.158,8.158,0,0,0,.742-2.23,10.07,10.07,0,0,1-.653-3.473c-.3-.458-.842-.686-1.172-1.133-1.64-2.223-3.9-1.835-5.078,1.186-2.519,1.271-2.544,3.38-1,5.408.983,1.29,1.118,3.036,1.981,4.417-.089.114-.181.224-.27.337a40.453,40.453,0,0,0-4.223,6.69,16.819,16.819,0,0,0-1-7.812c-.961-2.319-2.763-4.271-4.349-6.276a3.452,3.452,0,0,0-6.149,1.7q0,.044-.01.089.353.2.692.423a1.692,1.692,0,0,1-.682,3.08l-.035.005a16.843,16.843,0,0,0,.444,2.518c-2.035,7.87,2.358,10.737,8.632,10.866.139.071.273.142.412.21a41.294,41.294,0,0,0-2.223,10.461,39.165,39.165,0,0,0,.028,6.324l-.011-.075a10.35,10.35,0,0,0-3.533-5.976c-2.719-2.233-6.56-3.056-9.493-4.851a1.942,1.942,0,0,0-2.975,1.89l.012.078a11.378,11.378,0,0,1,1.275.614q.353.2.692.423a1.692,1.692,0,0,1-.682,3.08l-.034.005-.071.011a16.852,16.852,0,0,0,3.1,4.854c1.272,6.87,6.738,7.522,12.584,5.521h0a41.279,41.279,0,0,0,2.773,8.1h9.907c.036-.11.068-.224.1-.334a11.256,11.256,0,0,1-2.741-.163c.735-.9,1.47-1.811,2.205-2.713a.609.609,0,0,0,.046-.053c.373-.462.749-.92,1.122-1.381h0a16.491,16.491,0,0,0-.483-4.2Z" transform="translate(-492.304 -296.315)" fill="#f2f2f2"/>
    <path id="Path_325" data-name="Path 325" d="M862.541,533.226c0,.179,0,.359-.005.536H826.3a6.052,6.052,0,0,1-4.422-1.915c.013-.252.035-.5.062-.75,1.066-10.239,14.392-25.674,20.246-18.226S862.541,521.985,862.541,533.226Z" transform="translate(-478.247 -334.222)" fill="#4a3d56"/>
    <path id="Path_326" data-name="Path 326" d="M907.708,538.489c0,.125,0,.25,0,.373H882.448a4.219,4.219,0,0,1-3.082-1.335c.009-.175.024-.349.043-.523.743-7.137,12.008-19.731,14.111-12.7C898.88,542.211,907.6,531.449,907.708,538.489Z" transform="translate(-504.13 -339.323)" fill="#4a3d56"/>
    <path id="Path_327" data-name="Path 327" d="M636.819,287.478H280.782a12.489,12.489,0,0,0-12.474,12.474v187.81a12.414,12.414,0,0,0,3.4,8.543c.22.236.451.462.687.671a12.383,12.383,0,0,0,8.389,3.26H636.819a12.489,12.489,0,0,0,12.474-12.474c17.1-48.289,11.089-115.926,0-187.81a12.489,12.489,0,0,0-12.474-12.474Zm11.375,139.9a71.755,71.755,0,0,1-71.755,71.755H280.782a11.289,11.289,0,0,1-7.306-2.666,11.753,11.753,0,0,1-1.644-1.7,11.268,11.268,0,0,1-2.424-7V299.952a11.375,11.375,0,0,1,11.375-11.375H542.257A105.938,105.938,0,0,1,648.195,394.515Z" transform="translate(-229.009 -233.625)" fill="#785a82"/>
    <path id="Path_328" data-name="Path 328" d="M378.377,607.86c0,.195,0,.389-.006.581H339.1a6.559,6.559,0,0,1-4.792-2.075c.014-.273.038-.543.067-.813,1.155-11.1,12.6-13.217,21.942-19.753C366.835,578.443,378.187,594.833,378.377,607.86Z" transform="translate(-258.725 -367.119)" fill="#4a3d56"/>
    <path id="Path_329" data-name="Path 329" d="M405.152,606.158c-.084.107,0,.271,0,.4H377.776a4.572,4.572,0,0,1-3.34-1.447c.01-.19.026-.378.047-.566a15.571,15.571,0,0,1,15.294-13.768C404.589,590.354,412.206,597.189,405.152,606.158Z" transform="translate(-276.792 -370.175)" fill="#4a3d56"/>
    <path id="Path_330" data-name="Path 330" d="M401.378,520.517c0,.195,0,.389-.006.581H362.1a6.559,6.559,0,0,1-4.792-2.075c.014-.273.038-.543.067-.813,1.155-11.1,13.628-14.657,21.942-19.753S401.378,508.334,401.378,520.517Z" transform="translate(-269.08 -328.155)" fill="#4a3d56"/>
    <path id="Path_331" data-name="Path 331" d="M428.152,517.272a2.228,2.228,0,0,0,0,.4H400.776a4.572,4.572,0,0,1-3.34-1.447c.01-.19.026-.378.047-.567.805-7.735,7.776-11.184,15.294-13.768C425.192,497.628,430.324,506.419,428.152,517.272Z" transform="translate(-287.147 -329.669)" fill="#4a3d56"/>
    <path id="Path_332" data-name="Path 332" d="M462.152,530.987a3.245,3.245,0,0,1,0,.4H434.776a4.572,4.572,0,0,1-3.34-1.447c.01-.19.026-.378.047-.567.805-7.735,9.745-8.075,15.294-13.768C451.916,510.337,461.031,520.731,462.152,530.987Z" transform="translate(-302.455 -335.701)" fill="#4a3d56"/>
    <rect id="Rectangle_18" data-name="Rectangle 18" width="10.995" height="134.692" transform="translate(309.233 131.919)" fill="#3f3d56"/>
    <path id="Path_333" data-name="Path 333" d="M787.882,261.1c-.407-7.95-3.112-15.932-8.428-21.853-2.32-2.584-12.128-8.642-15.256-10.165,1.188-9.34,7.576-14.728,2.9-22.716A30.422,30.422,0,0,0,737.177,192a28.967,28.967,0,0,0-11.633,4.486A29.763,29.763,0,0,0,710.69,190a45.9,45.9,0,0,0-44.245,19.649c-1.418,2.151-1.514,5.371-.775,9.209a30.853,30.853,0,0,1-19.353,34.669,1.982,1.982,0,0,0-.719.46,31.419,31.419,0,0,0-6.526,32.48c1,2.573,1.3,7.046,4.05,7.167,17.755.782,19.115,10.473,9.047,24.882-2.108,3.017.955,7.278,2.862,10.486,4.387,7.383,13.244,11.177,21.82,11.682,8.538.506,16.971-1.754,25.223-4l11-.44c9.461,1.633,19.357,1.374,28.324-2.012,9.67-3.656,18.1-11.276,21.3-21.105,1.094-3.359,19.923.852,19.643-2.683,4.684-2.391-9.478-13.409-5.932-17.3A44.69,44.69,0,0,0,787.882,261.1Z" transform="translate(-395.041 -189.522)" fill="#75297f"/>
    <path id="Path_334" data-name="Path 334" d="M822.171,422.976c-2.531,7.776-8.343,14.16-15.446,18.3a45.971,45.971,0,0,0,10.5-2.566c8.239-3.115,15.567-9.113,19.538-16.9C831.186,421.82,822.886,420.78,822.171,422.976Z" transform="translate(-471.424 -294)" opacity="0.1"/>
    <path id="Path_335" data-name="Path 335" d="M813.4,293.145A44.691,44.691,0,0,0,824.87,261.1c-.407-7.95-3.112-15.932-8.428-21.853-2.32-2.584-12.128-8.642-15.256-10.165,1.188-9.34,7.576-14.728,2.9-22.716A30.422,30.422,0,0,0,774.166,192a28.966,28.966,0,0,0-11.633,4.486A29.763,29.763,0,0,0,747.678,190a45.4,45.4,0,0,0-28.45,5.271,42.988,42.988,0,0,1,12.091.1,29.763,29.763,0,0,1,14.855,6.482c3.508-2.3,13.673-8.164,11.633-4.486-8.72,15.722,1.586,23.438,29.924,14.365,4.512-1.445-1.521,6.13-8.643,15.121a11.441,11.441,0,0,0,11.12,18.337c5.088-.965,9.095-1.448,9.877-.577,5.316,5.921,24.548,15.26,8.428,21.853s-3.623,23.436-11.474,32.046c-2.491,2.734,3.751,8.982,6.065,13.288,5.706-.442,16.439,1.319,16.226-1.357C824.013,308.055,809.851,297.038,813.4,293.145Z" transform="translate(-432.03 -189.523)" opacity="0.1"/>
    <path id="Path_336" data-name="Path 336" d="M677.847,490.382h44.769a.55.55,0,0,0,0-1.1H677.847a.55.55,0,1,0,0,1.1Z" transform="translate(-413.151 -324.485)" fill="#3f3d56"/>
    <path id="Path_337" data-name="Path 337" d="M776.521,524.671C767.444,512.6,762.2,499.1,762.026,483.7a3.321,3.321,0,0,1,2.021-4.234l30.939-10.947a3.321,3.321,0,0,1,4.234,2.021l14.5,40.967a3.321,3.321,0,0,1-2.021,4.234l-30.939,10.947A3.321,3.321,0,0,1,776.521,524.671Z" transform="translate(-451.214 -315.053)" fill="#e6e6e6"/>
    <path id="Path_338" data-name="Path 338" d="M777.124,514.107c-5.459-5.52-7.8-15.365-9.319-26.337A3.11,3.11,0,0,1,769.7,483.8l26.59-9.408a3.111,3.111,0,0,1,3.966,1.893l12.9,36.455a3.111,3.111,0,0,1-1.893,3.965l-16.472,5.828a13.855,13.855,0,0,1-17.663-8.43Z" transform="translate(-453.821 -317.703)" fill="#fff"/>
    <path id="Path_339" data-name="Path 339" d="M809.212,511.607,788.5,519a1.32,1.32,0,0,1-.887-2.485l20.713-7.393a1.32,1.32,0,1,1,.887,2.486Z" transform="translate(-462.424 -333.383)" fill="#75297f"/>
    <path id="Path_340" data-name="Path 340" d="M788.631,509.7l-4.557,1.627a1.32,1.32,0,0,1-.887-2.486l4.557-1.627a1.32,1.32,0,1,1,.887,2.486Z" transform="translate(-460.432 -332.524)" fill="#75297f"/>
    <path id="Path_341" data-name="Path 341" d="M816.307,531.483l-20.713,7.393a1.32,1.32,0,1,1-.887-2.485L815.42,529a1.32,1.32,0,1,1,.887,2.486Z" transform="translate(-465.619 -342.332)" fill="#75297f"/>
    <path id="Path_342" data-name="Path 342" d="M812.76,521.546l-20.713,7.394a1.32,1.32,0,0,1-.887-2.485l20.713-7.393a1.32,1.32,0,1,1,.887,2.486Z" transform="translate(-464.022 -337.858)" fill="#75297f"/>
    <circle id="Ellipse_18" data-name="Ellipse 18" cx="5.498" cy="5.498" r="5.498" transform="translate(307.074 162.048)" fill="#75297f"/>
    <path id="Path_343" data-name="Path 343" d="M655.352,238.382H610.583a.55.55,0,0,1,0-1.1h44.769a.55.55,0,1,1,0,1.1Z" transform="translate(-382.866 -211.025)" fill="#3f3d56"/>
    <path id="Path_344" data-name="Path 344" d="M505.306,243.433c3.888-14.6,11.265-27.061,23.264-36.7a3.321,3.321,0,0,1,4.578-1.026l27.72,17.569a3.321,3.321,0,0,1,1.026,4.578l-23.264,36.7a3.321,3.321,0,0,1-4.578,1.026l-27.72-17.569A3.321,3.321,0,0,1,505.306,243.433Z" transform="translate(-335.483 -196.576)" fill="#e6e6e6"/>
    <path id="Path_345" data-name="Path 345" d="M520.618,236.533c.969-7.7,7.268-15.622,14.956-23.6a3.11,3.11,0,0,1,4.288-.961l23.823,15.1a3.11,3.11,0,0,1,.961,4.288l-20.7,32.662a3.11,3.11,0,0,1-4.288.961L524.9,255.632A13.855,13.855,0,0,1,520.618,236.533Z" transform="translate(-341.642 -199.415)" fill="#fff"/>
    <path id="Path_346" data-name="Path 346" d="M559.024,258.613l-18.608-11.723a1.32,1.32,0,1,1,1.407-2.233L560.43,256.38a1.32,1.32,0,1,1-1.407,2.233Z" transform="translate(-351.244 -214.255)" fill="#75297f"/>
    <path id="Path_347" data-name="Path 347" d="M551.525,238.333l-4.094-2.579a1.32,1.32,0,0,1,1.407-2.233l4.094,2.579a1.32,1.32,0,1,1-1.407,2.233Z" transform="translate(-354.403 -209.24)" fill="#75297f"/>
    <path id="Path_348" data-name="Path 348" d="M547.775,276.47l-18.608-11.722a1.32,1.32,0,0,1,1.407-2.233l18.608,11.722a1.32,1.32,0,1,1-1.407,2.233Z" transform="translate(-346.18 -222.295)" fill="#75297f"/>
    <path id="Path_349" data-name="Path 349" d="M553.4,267.542,534.79,255.82a1.32,1.32,0,0,1,1.407-2.233l18.608,11.722a1.32,1.32,0,1,1-1.407,2.233Z" transform="translate(-348.712 -218.275)" fill="#75297f"/>
    <circle id="Ellipse_19" data-name="Ellipse 19" cx="5.498" cy="5.498" r="5.498" transform="translate(219.112 23.508)" fill="#75297f"/>
    <path id="Path_350" data-name="Path 350" d="M468.247,365.945H410.04a1.255,1.255,0,1,1,0-2.51h58.207a1.255,1.255,0,1,1,0,2.51Z" transform="translate(-292.257 -267.824)" fill="#75297f"/>
    <path id="Path_351" data-name="Path 351" d="M497.712,386.819H410.04a1.255,1.255,0,1,1,0-2.51h87.672a1.255,1.255,0,1,1,0,2.51Z" transform="translate(-292.257 -277.222)" fill="#f2f2f2"/>
    <path id="Path_352" data-name="Path 352" d="M497.711,405.179H410.035a1.256,1.256,0,1,0,0,2.512h87.676a1.256,1.256,0,1,0,0-2.512Z" transform="translate(-292.254 -286.619)" fill="#f2f2f2"/>
    <path id="Path_353" data-name="Path 353" d="M497.712,428.567H410.04a1.255,1.255,0,0,1,0-2.51h87.672a1.255,1.255,0,0,1,0,2.51Z" transform="translate(-292.257 -296.019)" fill="#f2f2f2"/>
    <path id="Path_354" data-name="Path 354" d="M277.537,460l2.641-21.736-7.189-.517-1.613,22.792a3.591,3.591,0,1,0,6.16-.539Z" transform="translate(-230.232 -301.28)" fill="#a0616a"/>
    <path id="Path_355" data-name="Path 355" d="M285.705,383.116h0a6.041,6.041,0,0,0-6.43,3.753c-3.022,7.6-8.851,22.5-8.534,23.66.426,1.562.852,1.7-.284,2.272s-2.7-.426-1.136.568-.426,1.278.284,1.988,12.5,2.27,12.5,2.27-2.6-7.915-1.728-9.069,3.715.265,2.295-1.155-2.743-1.812-1.088-2.468,3.1-1.381,3.1-1.381l5.659-11.842a6.045,6.045,0,0,0-4.64-8.6Z" transform="translate(-229.169 -276.66)" fill="#e6e6e6"/>
    <path id="Path_356" data-name="Path 356" d="M121.629,450.038h3.925l1.867-15.14h-5.793Z" transform="translate(-54.762 -195.807)" fill="#a0616a"/>
    <path id="Path_357" data-name="Path 357" d="M318.2,654.066h12.071v-.153a4.7,4.7,0,0,0-4.7-4.7h0l-2.2-1.673-4.114,1.673H318.2Z" transform="translate(-251.473 -395.739)" fill="#2f2e41"/>
    <path id="Path_358" data-name="Path 358" d="M6.9,409.785l1.606,3.582,14.58-4.492-2.371-5.286Z" transform="translate(-3.106 -181.711)" fill="#a0616a"/>
    <path id="Path_359" data-name="Path 359" d="M196.824,605.574l4.939,11.014.139-.062a4.7,4.7,0,0,0,2.365-6.209h0l.624-2.7-3.21-3.069-.431-.961Z" transform="translate(-196.824 -375.951)" fill="#2f2e41"/>
    <circle id="Ellipse_20" data-name="Ellipse 20" cx="7.486" cy="7.486" r="7.486" transform="translate(55.569 82.263)" fill="#a0616a"/>
    <path id="Path_360" data-name="Path 360" d="M281.295,478.217l-28.29-.9s-5.986,11.584-2.319,18.814.764,27.715.764,27.715l-36.613,18.583,3.143,7.185s8.083-.449,9.43-1.8a7.258,7.258,0,0,1,4.49-1.8c.9,0,27.392-11.675,27.392-11.675l6.883-19.942,6.984,27.24-3.425,24.206,8.175.215s2.82-1.417,1.98-3.545-1.274-3.055.739-4.837,5.913-28.767,5.913-28.767l-4.625-31.138s-2.754-.775-.427-2.877-.051-4.609-.051-4.609,1.968-2.784-.026-2.337-.118-10.636-.118-10.636" transform="translate(-204.934 -319.099)" fill="#4a3d56"/>
    <path id="Path_361" data-name="Path 361" d="M303.159,374.87l-10.446-.647-1.826,3.023s-4.112-.23-3.214,1.117.376.244-.935,1.245-3.081,1.178-2.2,1.987c.129.118.077.467-.106.977a57.77,57.77,0,0,0-2.573,30.664,31.72,31.72,0,0,1,.87,5.54c-.449.449-2.694,0-1.347,1.347s3.592,0,.9,2.694-8.352,14.1-1.8,14.818,30.984-.9,30.535-2.694l-3.143-12.574-2.56-36.177-2.565-6.91Z" transform="translate(-233.121 -272.681)" fill="#e6e6e6"/>
    <path id="Path_362" data-name="Path 362" d="M315.92,473.255,311.556,451.8l-6.984,1.782,5.674,22.133a3.591,3.591,0,1,0,5.674-2.459Z" transform="translate(-245.337 -307.609)" fill="#a0616a"/>
    <path id="Path_363" data-name="Path 363" d="M305.572,395.25h0a6.041,6.041,0,0,0-4.914,5.592c-.466,8.162-1.285,24.145-.618,25.145.9,1.347,1.347,1.347.449,2.245s-2.694.449-.9.9,0,1.347.9,1.8,12.573-1.8,12.573-1.8-4.971-6.686-4.506-8.058,3.608-.923,1.812-1.821-3.175-.852-1.812-2,2.509-2.292,2.509-2.292l1.626-13.023a6.045,6.045,0,0,0-7.119-6.689Z" transform="translate(-242.747 -282.101)" fill="#e6e6e6"/>
    <path id="Path_364" data-name="Path 364" d="M303.466,349.5a15.632,15.632,0,0,1-3.045,1.815,5.253,5.253,0,0,1-3.472.287,3.966,3.966,0,0,1-2.522-2.391c-.412-1.128-3.858-2.445-3.208-3.454a5.7,5.7,0,0,0,.8-1.32,1,1,0,0,0-.532-1.281.934.934,0,0,0-1,.576,2.728,2.728,0,0,0-.156,1.232,2.006,2.006,0,0,1-.55-2.342l-1.164-.585c1.005-.392,4.83-1.978,3.98-2.642-.719-.562-3.034-2.386-2.776-3.044a5.467,5.467,0,0,1,1.247-1.7,7.292,7.292,0,0,1,3.52-2.442,7.794,7.794,0,0,1,3.651.472,6.067,6.067,0,0,0,3.652.218c1.168-.416,2.055-1.834,1.47-2.928a2.335,2.335,0,0,1,2.135,1.343l.2-1.842a5.891,5.891,0,0,1,2.409,1.288,2.019,2.019,0,0,1,.353,2.509c-.616.812-1.992.9-2.357,1.857-.32.835.373,1.679.952,2.361s1.084,1.74.477,2.4c-.5.543-1.385.37-2.1.556a2.89,2.89,0,0,0-1.886,2.526,13.661,13.661,0,0,0,.249,3.329,4.852,4.852,0,0,1-.493,3.242" transform="translate(-238.154 -252.535)" fill="#2f2e41"/>
    <path id="Path_365" data-name="Path 365" d="M322.986,351.736h0c-.766,0-1.614-.3-1.614-1.062v-4.862c0-.766.848-.673,1.614-.673h0c1.908-1.279,3.525.586,3.589,3.1h0C326.554,350.96,325.06,352.7,322.986,351.736Z" transform="translate(-252.901 -259.4)" fill="#3f3d56"/>
    <path id="Path_366" data-name="Path 366" d="M309.05,344.18h-2.444c-.817,0-4.026-.056-4.187.713-4.312-.764-6.007-.784-8.511.634a1.123,1.123,0,0,0,0,2.245l7.961-.131,3.04,2.475a1.7,1.7,0,0,0,1.7,1.7h2.444a1.7,1.7,0,0,0,1.7-1.7,3.848,3.848,0,0,1,0-4.24,1.7,1.7,0,0,0-1.7-1.7Z" transform="translate(-240.029 -259.155)" fill="#75297f"/>
    <g id="play-outline" transform="translate(191.408 129.669)" opacity="0.21">
      <path id="Path_367" data-name="Path 367" d="M27.592,5.87A21.722,21.722,0,1,1,5.87,27.592,21.722,21.722,0,0,1,27.592,5.87m0-3.62A25.342,25.342,0,1,0,52.935,27.592,25.342,25.342,0,0,0,27.592,2.25Z" transform="translate(0 0)" fill="#75297f"/>
      <path id="Path_368" data-name="Path 368" d="M14.185,35.463a1.812,1.812,0,0,1-1.81-1.81V11.931a1.792,1.792,0,0,1,2.7-1.558L34.984,21.235a1.81,1.81,0,0,1,0,3.186L15.072,35.282a1.81,1.81,0,0,1-.887.182ZM16,14.972v15.64l14.319-7.82Z" transform="translate(6.166 4.8)" fill="#75297f"/>
    </g>
  </g>
</svg>
